G04 MADE WITH FRITZING*
G04 WWW.FRITZING.ORG*
G04 SINGLE SIDED*
G04 HOLES NOT PLATED*
G04 CONTOUR ON CENTER OF CONTOUR VECTOR*
%ASAXBY*%
%FSLAX23Y23*%
%MOIN*%
%OFA0B0*%
%SFA1.0B1.0*%
%ADD10R,3.915120X1.511820X3.899120X1.495820*%
%ADD11C,0.008000*%
%ADD12R,0.001000X0.001000*%
%LNSILK1*%
G90*
G70*
G54D11*
X4Y1508D02*
X3911Y1508D01*
X3911Y4D01*
X4Y4D01*
X4Y1508D01*
D02*
G54D12*
X564Y1413D02*
X584Y1413D01*
X737Y1413D02*
X758Y1413D01*
X782Y1413D02*
X784Y1413D01*
X2937Y1413D02*
X2955Y1413D01*
X2964Y1413D02*
X2981Y1413D01*
X563Y1412D02*
X585Y1412D01*
X736Y1412D02*
X760Y1412D01*
X781Y1412D02*
X785Y1412D01*
X2936Y1412D02*
X2957Y1412D01*
X2962Y1412D02*
X2983Y1412D01*
X562Y1411D02*
X586Y1411D01*
X735Y1411D02*
X761Y1411D01*
X780Y1411D02*
X786Y1411D01*
X2934Y1411D02*
X2958Y1411D01*
X2960Y1411D02*
X2984Y1411D01*
X3164Y1411D02*
X3167Y1411D01*
X562Y1410D02*
X586Y1410D01*
X734Y1410D02*
X761Y1410D01*
X780Y1410D02*
X786Y1410D01*
X2934Y1410D02*
X2985Y1410D01*
X3163Y1410D02*
X3168Y1410D01*
X562Y1409D02*
X586Y1409D01*
X733Y1409D02*
X762Y1409D01*
X780Y1409D02*
X786Y1409D01*
X2933Y1409D02*
X2985Y1409D01*
X3162Y1409D02*
X3168Y1409D01*
X563Y1408D02*
X586Y1408D01*
X733Y1408D02*
X762Y1408D01*
X780Y1408D02*
X786Y1408D01*
X2933Y1408D02*
X2986Y1408D01*
X3141Y1408D02*
X3184Y1408D01*
X564Y1407D02*
X586Y1407D01*
X733Y1407D02*
X762Y1407D01*
X780Y1407D02*
X786Y1407D01*
X2933Y1407D02*
X2986Y1407D01*
X3139Y1407D02*
X3185Y1407D01*
X580Y1406D02*
X586Y1406D01*
X733Y1406D02*
X739Y1406D01*
X756Y1406D02*
X762Y1406D01*
X780Y1406D02*
X786Y1406D01*
X1701Y1406D02*
X1727Y1406D01*
X1753Y1406D02*
X1758Y1406D01*
X2701Y1406D02*
X2727Y1406D01*
X2758Y1406D02*
X2783Y1406D01*
X2933Y1406D02*
X2939Y1406D01*
X2954Y1406D02*
X2964Y1406D01*
X2980Y1406D02*
X2986Y1406D01*
X3139Y1406D02*
X3186Y1406D01*
X580Y1405D02*
X586Y1405D01*
X733Y1405D02*
X739Y1405D01*
X756Y1405D02*
X762Y1405D01*
X780Y1405D02*
X786Y1405D01*
X1701Y1405D02*
X1729Y1405D01*
X1752Y1405D02*
X1760Y1405D01*
X2701Y1405D02*
X2729Y1405D01*
X2758Y1405D02*
X2784Y1405D01*
X2933Y1405D02*
X2939Y1405D01*
X2956Y1405D02*
X2963Y1405D01*
X2980Y1405D02*
X2986Y1405D01*
X3139Y1405D02*
X3186Y1405D01*
X580Y1404D02*
X586Y1404D01*
X733Y1404D02*
X739Y1404D01*
X756Y1404D02*
X762Y1404D01*
X780Y1404D02*
X786Y1404D01*
X1701Y1404D02*
X1731Y1404D01*
X1751Y1404D02*
X1760Y1404D01*
X2701Y1404D02*
X2731Y1404D01*
X2758Y1404D02*
X2784Y1404D01*
X2933Y1404D02*
X2939Y1404D01*
X2956Y1404D02*
X2963Y1404D01*
X2980Y1404D02*
X2986Y1404D01*
X3139Y1404D02*
X3186Y1404D01*
X580Y1403D02*
X586Y1403D01*
X733Y1403D02*
X739Y1403D01*
X756Y1403D02*
X762Y1403D01*
X780Y1403D02*
X786Y1403D01*
X1701Y1403D02*
X1732Y1403D01*
X1751Y1403D02*
X1760Y1403D01*
X2701Y1403D02*
X2732Y1403D01*
X2758Y1403D02*
X2784Y1403D01*
X2933Y1403D02*
X2939Y1403D01*
X2956Y1403D02*
X2962Y1403D01*
X2980Y1403D02*
X2986Y1403D01*
X3139Y1403D02*
X3185Y1403D01*
X580Y1402D02*
X586Y1402D01*
X733Y1402D02*
X739Y1402D01*
X756Y1402D02*
X762Y1402D01*
X780Y1402D02*
X786Y1402D01*
X1701Y1402D02*
X1733Y1402D01*
X1751Y1402D02*
X1760Y1402D01*
X2701Y1402D02*
X2732Y1402D01*
X2758Y1402D02*
X2784Y1402D01*
X2933Y1402D02*
X2939Y1402D01*
X2956Y1402D02*
X2962Y1402D01*
X2980Y1402D02*
X2986Y1402D01*
X3140Y1402D02*
X3184Y1402D01*
X580Y1401D02*
X586Y1401D01*
X733Y1401D02*
X739Y1401D01*
X756Y1401D02*
X762Y1401D01*
X780Y1401D02*
X786Y1401D01*
X1701Y1401D02*
X1733Y1401D01*
X1751Y1401D02*
X1760Y1401D01*
X2701Y1401D02*
X2733Y1401D01*
X2758Y1401D02*
X2784Y1401D01*
X2933Y1401D02*
X2939Y1401D01*
X2956Y1401D02*
X2962Y1401D01*
X2980Y1401D02*
X2986Y1401D01*
X3162Y1401D02*
X3168Y1401D01*
X580Y1400D02*
X586Y1400D01*
X733Y1400D02*
X739Y1400D01*
X756Y1400D02*
X762Y1400D01*
X780Y1400D02*
X786Y1400D01*
X1701Y1400D02*
X1734Y1400D01*
X1751Y1400D02*
X1759Y1400D01*
X2701Y1400D02*
X2734Y1400D01*
X2758Y1400D02*
X2783Y1400D01*
X2933Y1400D02*
X2939Y1400D01*
X2956Y1400D02*
X2962Y1400D01*
X2980Y1400D02*
X2986Y1400D01*
X3162Y1400D02*
X3168Y1400D01*
X533Y1399D02*
X586Y1399D01*
X733Y1399D02*
X739Y1399D01*
X756Y1399D02*
X762Y1399D01*
X780Y1399D02*
X786Y1399D01*
X1701Y1399D02*
X1707Y1399D01*
X1726Y1399D02*
X1734Y1399D01*
X1751Y1399D02*
X1757Y1399D01*
X2701Y1399D02*
X2707Y1399D01*
X2726Y1399D02*
X2734Y1399D01*
X2758Y1399D02*
X2764Y1399D01*
X2933Y1399D02*
X2939Y1399D01*
X2956Y1399D02*
X2962Y1399D01*
X2980Y1399D02*
X2986Y1399D01*
X3162Y1399D02*
X3168Y1399D01*
X533Y1398D02*
X586Y1398D01*
X733Y1398D02*
X739Y1398D01*
X756Y1398D02*
X762Y1398D01*
X780Y1398D02*
X786Y1398D01*
X1701Y1398D02*
X1707Y1398D01*
X1728Y1398D02*
X1734Y1398D01*
X1751Y1398D02*
X1757Y1398D01*
X2701Y1398D02*
X2707Y1398D01*
X2728Y1398D02*
X2734Y1398D01*
X2758Y1398D02*
X2764Y1398D01*
X2933Y1398D02*
X2939Y1398D01*
X2956Y1398D02*
X2962Y1398D01*
X2980Y1398D02*
X2986Y1398D01*
X3162Y1398D02*
X3168Y1398D01*
X533Y1397D02*
X586Y1397D01*
X733Y1397D02*
X739Y1397D01*
X756Y1397D02*
X762Y1397D01*
X780Y1397D02*
X786Y1397D01*
X1701Y1397D02*
X1707Y1397D01*
X1728Y1397D02*
X1734Y1397D01*
X1751Y1397D02*
X1757Y1397D01*
X2701Y1397D02*
X2707Y1397D01*
X2728Y1397D02*
X2734Y1397D01*
X2758Y1397D02*
X2764Y1397D01*
X2933Y1397D02*
X2939Y1397D01*
X2956Y1397D02*
X2962Y1397D01*
X2980Y1397D02*
X2986Y1397D01*
X3162Y1397D02*
X3168Y1397D01*
X533Y1396D02*
X586Y1396D01*
X733Y1396D02*
X739Y1396D01*
X756Y1396D02*
X762Y1396D01*
X780Y1396D02*
X786Y1396D01*
X1701Y1396D02*
X1707Y1396D01*
X1728Y1396D02*
X1735Y1396D01*
X1751Y1396D02*
X1757Y1396D01*
X2701Y1396D02*
X2707Y1396D01*
X2728Y1396D02*
X2735Y1396D01*
X2758Y1396D02*
X2764Y1396D01*
X2933Y1396D02*
X2939Y1396D01*
X2956Y1396D02*
X2962Y1396D01*
X2980Y1396D02*
X2986Y1396D01*
X3162Y1396D02*
X3168Y1396D01*
X533Y1395D02*
X586Y1395D01*
X733Y1395D02*
X739Y1395D01*
X756Y1395D02*
X762Y1395D01*
X780Y1395D02*
X786Y1395D01*
X1701Y1395D02*
X1707Y1395D01*
X1729Y1395D02*
X1735Y1395D01*
X1751Y1395D02*
X1757Y1395D01*
X2701Y1395D02*
X2707Y1395D01*
X2728Y1395D02*
X2735Y1395D01*
X2758Y1395D02*
X2764Y1395D01*
X2933Y1395D02*
X2939Y1395D01*
X2956Y1395D02*
X2962Y1395D01*
X2980Y1395D02*
X2986Y1395D01*
X3162Y1395D02*
X3168Y1395D01*
X533Y1394D02*
X586Y1394D01*
X733Y1394D02*
X739Y1394D01*
X756Y1394D02*
X762Y1394D01*
X780Y1394D02*
X786Y1394D01*
X1701Y1394D02*
X1707Y1394D01*
X1729Y1394D02*
X1735Y1394D01*
X1751Y1394D02*
X1757Y1394D01*
X2701Y1394D02*
X2707Y1394D01*
X2728Y1394D02*
X2735Y1394D01*
X2758Y1394D02*
X2764Y1394D01*
X2933Y1394D02*
X2939Y1394D01*
X2956Y1394D02*
X2962Y1394D01*
X2980Y1394D02*
X2986Y1394D01*
X3162Y1394D02*
X3168Y1394D01*
X533Y1393D02*
X586Y1393D01*
X733Y1393D02*
X739Y1393D01*
X756Y1393D02*
X762Y1393D01*
X780Y1393D02*
X786Y1393D01*
X1701Y1393D02*
X1707Y1393D01*
X1729Y1393D02*
X1735Y1393D01*
X1751Y1393D02*
X1757Y1393D01*
X2701Y1393D02*
X2707Y1393D01*
X2728Y1393D02*
X2735Y1393D01*
X2758Y1393D02*
X2764Y1393D01*
X2933Y1393D02*
X2939Y1393D01*
X2956Y1393D02*
X2962Y1393D01*
X2980Y1393D02*
X2986Y1393D01*
X3162Y1393D02*
X3168Y1393D01*
X533Y1392D02*
X539Y1392D01*
X580Y1392D02*
X586Y1392D01*
X733Y1392D02*
X739Y1392D01*
X756Y1392D02*
X762Y1392D01*
X780Y1392D02*
X786Y1392D01*
X1701Y1392D02*
X1707Y1392D01*
X1728Y1392D02*
X1735Y1392D01*
X1751Y1392D02*
X1757Y1392D01*
X2701Y1392D02*
X2707Y1392D01*
X2728Y1392D02*
X2734Y1392D01*
X2758Y1392D02*
X2764Y1392D01*
X2933Y1392D02*
X2939Y1392D01*
X2956Y1392D02*
X2962Y1392D01*
X2980Y1392D02*
X2986Y1392D01*
X3162Y1392D02*
X3168Y1392D01*
X533Y1391D02*
X539Y1391D01*
X580Y1391D02*
X586Y1391D01*
X733Y1391D02*
X739Y1391D01*
X756Y1391D02*
X762Y1391D01*
X780Y1391D02*
X786Y1391D01*
X1701Y1391D02*
X1707Y1391D01*
X1728Y1391D02*
X1734Y1391D01*
X1751Y1391D02*
X1757Y1391D01*
X2701Y1391D02*
X2707Y1391D01*
X2728Y1391D02*
X2734Y1391D01*
X2758Y1391D02*
X2764Y1391D01*
X2933Y1391D02*
X2939Y1391D01*
X2956Y1391D02*
X2962Y1391D01*
X2980Y1391D02*
X2986Y1391D01*
X3162Y1391D02*
X3168Y1391D01*
X533Y1390D02*
X539Y1390D01*
X580Y1390D02*
X586Y1390D01*
X733Y1390D02*
X739Y1390D01*
X756Y1390D02*
X762Y1390D01*
X780Y1390D02*
X786Y1390D01*
X1701Y1390D02*
X1707Y1390D01*
X1728Y1390D02*
X1734Y1390D01*
X1751Y1390D02*
X1757Y1390D01*
X2701Y1390D02*
X2707Y1390D01*
X2728Y1390D02*
X2734Y1390D01*
X2758Y1390D02*
X2764Y1390D01*
X2933Y1390D02*
X2939Y1390D01*
X2956Y1390D02*
X2962Y1390D01*
X2980Y1390D02*
X2986Y1390D01*
X3162Y1390D02*
X3168Y1390D01*
X533Y1389D02*
X539Y1389D01*
X580Y1389D02*
X586Y1389D01*
X733Y1389D02*
X739Y1389D01*
X756Y1389D02*
X762Y1389D01*
X780Y1389D02*
X786Y1389D01*
X1701Y1389D02*
X1707Y1389D01*
X1726Y1389D02*
X1734Y1389D01*
X1751Y1389D02*
X1757Y1389D01*
X2701Y1389D02*
X2707Y1389D01*
X2726Y1389D02*
X2734Y1389D01*
X2758Y1389D02*
X2764Y1389D01*
X2933Y1389D02*
X2939Y1389D01*
X2956Y1389D02*
X2962Y1389D01*
X2980Y1389D02*
X2986Y1389D01*
X3162Y1389D02*
X3168Y1389D01*
X533Y1388D02*
X539Y1388D01*
X580Y1388D02*
X586Y1388D01*
X733Y1388D02*
X739Y1388D01*
X756Y1388D02*
X762Y1388D01*
X780Y1388D02*
X786Y1388D01*
X1701Y1388D02*
X1734Y1388D01*
X1751Y1388D02*
X1757Y1388D01*
X2701Y1388D02*
X2734Y1388D01*
X2758Y1388D02*
X2764Y1388D01*
X2933Y1388D02*
X2939Y1388D01*
X2957Y1388D02*
X2962Y1388D01*
X2980Y1388D02*
X2986Y1388D01*
X3162Y1388D02*
X3168Y1388D01*
X533Y1387D02*
X539Y1387D01*
X580Y1387D02*
X586Y1387D01*
X733Y1387D02*
X739Y1387D01*
X756Y1387D02*
X762Y1387D01*
X780Y1387D02*
X786Y1387D01*
X1701Y1387D02*
X1733Y1387D01*
X1751Y1387D02*
X1757Y1387D01*
X2701Y1387D02*
X2733Y1387D01*
X2758Y1387D02*
X2764Y1387D01*
X2933Y1387D02*
X2939Y1387D01*
X2957Y1387D02*
X2961Y1387D01*
X2980Y1387D02*
X2986Y1387D01*
X3134Y1387D02*
X3168Y1387D01*
X533Y1386D02*
X539Y1386D01*
X580Y1386D02*
X586Y1386D01*
X733Y1386D02*
X739Y1386D01*
X756Y1386D02*
X763Y1386D01*
X780Y1386D02*
X786Y1386D01*
X1701Y1386D02*
X1732Y1386D01*
X1751Y1386D02*
X1757Y1386D01*
X2701Y1386D02*
X2732Y1386D01*
X2758Y1386D02*
X2764Y1386D01*
X2933Y1386D02*
X2939Y1386D01*
X2959Y1386D02*
X2960Y1386D01*
X2980Y1386D02*
X2986Y1386D01*
X3133Y1386D02*
X3168Y1386D01*
X533Y1385D02*
X539Y1385D01*
X580Y1385D02*
X586Y1385D01*
X733Y1385D02*
X739Y1385D01*
X756Y1385D02*
X786Y1385D01*
X1701Y1385D02*
X1732Y1385D01*
X1751Y1385D02*
X1757Y1385D01*
X2701Y1385D02*
X2731Y1385D01*
X2758Y1385D02*
X2764Y1385D01*
X2933Y1385D02*
X2939Y1385D01*
X2980Y1385D02*
X2986Y1385D01*
X3133Y1385D02*
X3168Y1385D01*
X533Y1384D02*
X539Y1384D01*
X580Y1384D02*
X586Y1384D01*
X733Y1384D02*
X739Y1384D01*
X757Y1384D02*
X786Y1384D01*
X1701Y1384D02*
X1730Y1384D01*
X1751Y1384D02*
X1757Y1384D01*
X2701Y1384D02*
X2730Y1384D01*
X2758Y1384D02*
X2764Y1384D01*
X2933Y1384D02*
X2939Y1384D01*
X2980Y1384D02*
X2986Y1384D01*
X3133Y1384D02*
X3168Y1384D01*
X533Y1383D02*
X539Y1383D01*
X580Y1383D02*
X586Y1383D01*
X733Y1383D02*
X739Y1383D01*
X757Y1383D02*
X786Y1383D01*
X1701Y1383D02*
X1729Y1383D01*
X1751Y1383D02*
X1757Y1383D01*
X2701Y1383D02*
X2729Y1383D01*
X2758Y1383D02*
X2764Y1383D01*
X2933Y1383D02*
X2939Y1383D01*
X2980Y1383D02*
X2986Y1383D01*
X3133Y1383D02*
X3168Y1383D01*
X533Y1382D02*
X539Y1382D01*
X580Y1382D02*
X586Y1382D01*
X733Y1382D02*
X739Y1382D01*
X758Y1382D02*
X786Y1382D01*
X1701Y1382D02*
X1726Y1382D01*
X1751Y1382D02*
X1757Y1382D01*
X2701Y1382D02*
X2726Y1382D01*
X2758Y1382D02*
X2781Y1382D01*
X2933Y1382D02*
X2939Y1382D01*
X2980Y1382D02*
X2986Y1382D01*
X3134Y1382D02*
X3168Y1382D01*
X533Y1381D02*
X538Y1381D01*
X580Y1381D02*
X586Y1381D01*
X733Y1381D02*
X738Y1381D01*
X758Y1381D02*
X786Y1381D01*
X1701Y1381D02*
X1707Y1381D01*
X1713Y1381D02*
X1720Y1381D01*
X1751Y1381D02*
X1757Y1381D01*
X2701Y1381D02*
X2707Y1381D01*
X2713Y1381D02*
X2720Y1381D01*
X2758Y1381D02*
X2782Y1381D01*
X2933Y1381D02*
X2938Y1381D01*
X2980Y1381D02*
X2986Y1381D01*
X3135Y1381D02*
X3168Y1381D01*
X534Y1380D02*
X538Y1380D01*
X581Y1380D02*
X585Y1380D01*
X734Y1380D02*
X738Y1380D01*
X760Y1380D02*
X786Y1380D01*
X1701Y1380D02*
X1707Y1380D01*
X1714Y1380D02*
X1721Y1380D01*
X1751Y1380D02*
X1757Y1380D01*
X2701Y1380D02*
X2707Y1380D01*
X2714Y1380D02*
X2721Y1380D01*
X2758Y1380D02*
X2783Y1380D01*
X2934Y1380D02*
X2938Y1380D01*
X2981Y1380D02*
X2985Y1380D01*
X536Y1379D02*
X536Y1379D01*
X583Y1379D02*
X583Y1379D01*
X736Y1379D02*
X736Y1379D01*
X763Y1379D02*
X786Y1379D01*
X1701Y1379D02*
X1707Y1379D01*
X1714Y1379D02*
X1722Y1379D01*
X1751Y1379D02*
X1757Y1379D01*
X2701Y1379D02*
X2707Y1379D01*
X2714Y1379D02*
X2722Y1379D01*
X2758Y1379D02*
X2784Y1379D01*
X2936Y1379D02*
X2936Y1379D01*
X2983Y1379D02*
X2983Y1379D01*
X1701Y1378D02*
X1707Y1378D01*
X1715Y1378D02*
X1722Y1378D01*
X1751Y1378D02*
X1757Y1378D01*
X2701Y1378D02*
X2707Y1378D01*
X2715Y1378D02*
X2722Y1378D01*
X2758Y1378D02*
X2784Y1378D01*
X1701Y1377D02*
X1707Y1377D01*
X1716Y1377D02*
X1723Y1377D01*
X1751Y1377D02*
X1781Y1377D01*
X2701Y1377D02*
X2707Y1377D01*
X2715Y1377D02*
X2723Y1377D01*
X2758Y1377D02*
X2784Y1377D01*
X1701Y1376D02*
X1707Y1376D01*
X1716Y1376D02*
X1723Y1376D01*
X1751Y1376D02*
X1783Y1376D01*
X2701Y1376D02*
X2707Y1376D01*
X2716Y1376D02*
X2723Y1376D01*
X2758Y1376D02*
X2784Y1376D01*
X1701Y1375D02*
X1707Y1375D01*
X1717Y1375D02*
X1724Y1375D01*
X1751Y1375D02*
X1784Y1375D01*
X2701Y1375D02*
X2707Y1375D01*
X2717Y1375D02*
X2724Y1375D01*
X2778Y1375D02*
X2785Y1375D01*
X1701Y1374D02*
X1707Y1374D01*
X1717Y1374D02*
X1724Y1374D01*
X1751Y1374D02*
X1784Y1374D01*
X2701Y1374D02*
X2707Y1374D01*
X2717Y1374D02*
X2724Y1374D01*
X2778Y1374D02*
X2785Y1374D01*
X1701Y1373D02*
X1707Y1373D01*
X1718Y1373D02*
X1725Y1373D01*
X1751Y1373D02*
X1785Y1373D01*
X2701Y1373D02*
X2707Y1373D01*
X2718Y1373D02*
X2725Y1373D01*
X2778Y1373D02*
X2785Y1373D01*
X1701Y1372D02*
X1707Y1372D01*
X1718Y1372D02*
X1726Y1372D01*
X1751Y1372D02*
X1785Y1372D01*
X2701Y1372D02*
X2707Y1372D01*
X2718Y1372D02*
X2726Y1372D01*
X2778Y1372D02*
X2785Y1372D01*
X1701Y1371D02*
X1707Y1371D01*
X1719Y1371D02*
X1726Y1371D01*
X1751Y1371D02*
X1785Y1371D01*
X2701Y1371D02*
X2707Y1371D01*
X2719Y1371D02*
X2726Y1371D01*
X2778Y1371D02*
X2785Y1371D01*
X1701Y1370D02*
X1707Y1370D01*
X1720Y1370D02*
X1727Y1370D01*
X1751Y1370D02*
X1785Y1370D01*
X2701Y1370D02*
X2707Y1370D01*
X2720Y1370D02*
X2727Y1370D01*
X2778Y1370D02*
X2785Y1370D01*
X1701Y1369D02*
X1707Y1369D01*
X1720Y1369D02*
X1727Y1369D01*
X1751Y1369D02*
X1757Y1369D01*
X1779Y1369D02*
X1785Y1369D01*
X2701Y1369D02*
X2707Y1369D01*
X2720Y1369D02*
X2727Y1369D01*
X2778Y1369D02*
X2785Y1369D01*
X1701Y1368D02*
X1707Y1368D01*
X1721Y1368D02*
X1728Y1368D01*
X1751Y1368D02*
X1757Y1368D01*
X1779Y1368D02*
X1785Y1368D01*
X2701Y1368D02*
X2707Y1368D01*
X2721Y1368D02*
X2728Y1368D01*
X2778Y1368D02*
X2785Y1368D01*
X1701Y1367D02*
X1707Y1367D01*
X1721Y1367D02*
X1729Y1367D01*
X1751Y1367D02*
X1757Y1367D01*
X1779Y1367D02*
X1785Y1367D01*
X2701Y1367D02*
X2707Y1367D01*
X2721Y1367D02*
X2729Y1367D01*
X2778Y1367D02*
X2785Y1367D01*
X1701Y1366D02*
X1707Y1366D01*
X1722Y1366D02*
X1729Y1366D01*
X1751Y1366D02*
X1757Y1366D01*
X1779Y1366D02*
X1785Y1366D01*
X2701Y1366D02*
X2707Y1366D01*
X2722Y1366D02*
X2729Y1366D01*
X2778Y1366D02*
X2785Y1366D01*
X1701Y1365D02*
X1707Y1365D01*
X1723Y1365D02*
X1730Y1365D01*
X1751Y1365D02*
X1757Y1365D01*
X1779Y1365D02*
X1785Y1365D01*
X2701Y1365D02*
X2707Y1365D01*
X2723Y1365D02*
X2730Y1365D01*
X2778Y1365D02*
X2785Y1365D01*
X1701Y1364D02*
X1707Y1364D01*
X1723Y1364D02*
X1730Y1364D01*
X1751Y1364D02*
X1757Y1364D01*
X1779Y1364D02*
X1785Y1364D01*
X2701Y1364D02*
X2707Y1364D01*
X2723Y1364D02*
X2730Y1364D01*
X2778Y1364D02*
X2785Y1364D01*
X540Y1363D02*
X549Y1363D01*
X582Y1363D02*
X584Y1363D01*
X740Y1363D02*
X749Y1363D01*
X782Y1363D02*
X784Y1363D01*
X1701Y1363D02*
X1707Y1363D01*
X1724Y1363D02*
X1731Y1363D01*
X1751Y1363D02*
X1757Y1363D01*
X1779Y1363D02*
X1785Y1363D01*
X2701Y1363D02*
X2707Y1363D01*
X2724Y1363D02*
X2731Y1363D01*
X2778Y1363D02*
X2785Y1363D01*
X2940Y1363D02*
X2949Y1363D01*
X2982Y1363D02*
X2984Y1363D01*
X3140Y1363D02*
X3149Y1363D01*
X3182Y1363D02*
X3184Y1363D01*
X538Y1362D02*
X551Y1362D01*
X580Y1362D02*
X585Y1362D01*
X738Y1362D02*
X751Y1362D01*
X780Y1362D02*
X785Y1362D01*
X1701Y1362D02*
X1707Y1362D01*
X1724Y1362D02*
X1731Y1362D01*
X1751Y1362D02*
X1757Y1362D01*
X1779Y1362D02*
X1785Y1362D01*
X2701Y1362D02*
X2707Y1362D01*
X2724Y1362D02*
X2731Y1362D01*
X2753Y1362D02*
X2754Y1362D01*
X2778Y1362D02*
X2785Y1362D01*
X2938Y1362D02*
X2951Y1362D01*
X2980Y1362D02*
X2985Y1362D01*
X3138Y1362D02*
X3151Y1362D01*
X3180Y1362D02*
X3185Y1362D01*
X537Y1361D02*
X553Y1361D01*
X578Y1361D02*
X586Y1361D01*
X737Y1361D02*
X753Y1361D01*
X778Y1361D02*
X786Y1361D01*
X1701Y1361D02*
X1707Y1361D01*
X1725Y1361D02*
X1732Y1361D01*
X1751Y1361D02*
X1757Y1361D01*
X1779Y1361D02*
X1785Y1361D01*
X2701Y1361D02*
X2707Y1361D01*
X2725Y1361D02*
X2732Y1361D01*
X2752Y1361D02*
X2757Y1361D01*
X2778Y1361D02*
X2785Y1361D01*
X2937Y1361D02*
X2953Y1361D01*
X2978Y1361D02*
X2986Y1361D01*
X3137Y1361D02*
X3153Y1361D01*
X3178Y1361D02*
X3186Y1361D01*
X536Y1360D02*
X554Y1360D01*
X576Y1360D02*
X586Y1360D01*
X736Y1360D02*
X754Y1360D01*
X776Y1360D02*
X786Y1360D01*
X1701Y1360D02*
X1707Y1360D01*
X1725Y1360D02*
X1733Y1360D01*
X1751Y1360D02*
X1757Y1360D01*
X1779Y1360D02*
X1785Y1360D01*
X2701Y1360D02*
X2707Y1360D01*
X2725Y1360D02*
X2733Y1360D01*
X2751Y1360D02*
X2759Y1360D01*
X2778Y1360D02*
X2785Y1360D01*
X2935Y1360D02*
X2954Y1360D01*
X2976Y1360D02*
X2986Y1360D01*
X3135Y1360D02*
X3154Y1360D01*
X3176Y1360D02*
X3186Y1360D01*
X535Y1359D02*
X555Y1359D01*
X575Y1359D02*
X586Y1359D01*
X735Y1359D02*
X755Y1359D01*
X775Y1359D02*
X786Y1359D01*
X1701Y1359D02*
X1707Y1359D01*
X1726Y1359D02*
X1733Y1359D01*
X1751Y1359D02*
X1785Y1359D01*
X2701Y1359D02*
X2707Y1359D01*
X2726Y1359D02*
X2733Y1359D01*
X2751Y1359D02*
X2784Y1359D01*
X2935Y1359D02*
X2954Y1359D01*
X2975Y1359D02*
X2986Y1359D01*
X3135Y1359D02*
X3154Y1359D01*
X3175Y1359D02*
X3186Y1359D01*
X534Y1358D02*
X555Y1358D01*
X573Y1358D02*
X585Y1358D01*
X734Y1358D02*
X755Y1358D01*
X773Y1358D02*
X785Y1358D01*
X1701Y1358D02*
X1707Y1358D01*
X1727Y1358D02*
X1734Y1358D01*
X1751Y1358D02*
X1785Y1358D01*
X2701Y1358D02*
X2707Y1358D01*
X2727Y1358D02*
X2734Y1358D01*
X2751Y1358D02*
X2784Y1358D01*
X2934Y1358D02*
X2955Y1358D01*
X2973Y1358D02*
X2985Y1358D01*
X3134Y1358D02*
X3155Y1358D01*
X3173Y1358D02*
X3185Y1358D01*
X534Y1357D02*
X556Y1357D01*
X571Y1357D02*
X584Y1357D01*
X734Y1357D02*
X756Y1357D01*
X771Y1357D02*
X784Y1357D01*
X1701Y1357D02*
X1707Y1357D01*
X1727Y1357D02*
X1734Y1357D01*
X1751Y1357D02*
X1785Y1357D01*
X2701Y1357D02*
X2707Y1357D01*
X2727Y1357D02*
X2734Y1357D01*
X2751Y1357D02*
X2784Y1357D01*
X2934Y1357D02*
X2956Y1357D01*
X2971Y1357D02*
X2984Y1357D01*
X3134Y1357D02*
X3156Y1357D01*
X3171Y1357D02*
X3184Y1357D01*
X533Y1356D02*
X541Y1356D01*
X549Y1356D02*
X556Y1356D01*
X570Y1356D02*
X583Y1356D01*
X733Y1356D02*
X741Y1356D01*
X749Y1356D02*
X756Y1356D01*
X770Y1356D02*
X783Y1356D01*
X1701Y1356D02*
X1707Y1356D01*
X1728Y1356D02*
X1734Y1356D01*
X1751Y1356D02*
X1785Y1356D01*
X2701Y1356D02*
X2707Y1356D01*
X2728Y1356D02*
X2734Y1356D01*
X2752Y1356D02*
X2784Y1356D01*
X2933Y1356D02*
X2941Y1356D01*
X2949Y1356D02*
X2956Y1356D01*
X2970Y1356D02*
X2983Y1356D01*
X3133Y1356D02*
X3141Y1356D01*
X3149Y1356D02*
X3156Y1356D01*
X3170Y1356D02*
X3183Y1356D01*
X533Y1355D02*
X540Y1355D01*
X550Y1355D02*
X556Y1355D01*
X568Y1355D02*
X581Y1355D01*
X733Y1355D02*
X740Y1355D01*
X750Y1355D02*
X756Y1355D01*
X768Y1355D02*
X781Y1355D01*
X1701Y1355D02*
X1707Y1355D01*
X1728Y1355D02*
X1734Y1355D01*
X1751Y1355D02*
X1784Y1355D01*
X2701Y1355D02*
X2707Y1355D01*
X2728Y1355D02*
X2734Y1355D01*
X2754Y1355D02*
X2783Y1355D01*
X2933Y1355D02*
X2939Y1355D01*
X2950Y1355D02*
X2956Y1355D01*
X2968Y1355D02*
X2981Y1355D01*
X3133Y1355D02*
X3139Y1355D01*
X3150Y1355D02*
X3156Y1355D01*
X3168Y1355D02*
X3181Y1355D01*
X533Y1354D02*
X539Y1354D01*
X550Y1354D02*
X556Y1354D01*
X566Y1354D02*
X579Y1354D01*
X733Y1354D02*
X739Y1354D01*
X750Y1354D02*
X756Y1354D01*
X766Y1354D02*
X779Y1354D01*
X1702Y1354D02*
X1706Y1354D01*
X1729Y1354D02*
X1734Y1354D01*
X1752Y1354D02*
X1784Y1354D01*
X2701Y1354D02*
X2706Y1354D01*
X2729Y1354D02*
X2734Y1354D01*
X2756Y1354D02*
X2782Y1354D01*
X2933Y1354D02*
X2939Y1354D01*
X2950Y1354D02*
X2956Y1354D01*
X2966Y1354D02*
X2979Y1354D01*
X3133Y1354D02*
X3139Y1354D01*
X3150Y1354D02*
X3156Y1354D01*
X3166Y1354D02*
X3179Y1354D01*
X533Y1353D02*
X539Y1353D01*
X550Y1353D02*
X557Y1353D01*
X564Y1353D02*
X578Y1353D01*
X733Y1353D02*
X739Y1353D01*
X750Y1353D02*
X756Y1353D01*
X764Y1353D02*
X777Y1353D01*
X1702Y1353D02*
X1705Y1353D01*
X1730Y1353D02*
X1733Y1353D01*
X1752Y1353D02*
X1783Y1353D01*
X2702Y1353D02*
X2705Y1353D01*
X2730Y1353D02*
X2733Y1353D01*
X2759Y1353D02*
X2780Y1353D01*
X2933Y1353D02*
X2939Y1353D01*
X2950Y1353D02*
X2956Y1353D01*
X2964Y1353D02*
X2977Y1353D01*
X3133Y1353D02*
X3139Y1353D01*
X3150Y1353D02*
X3156Y1353D01*
X3164Y1353D02*
X3177Y1353D01*
X533Y1352D02*
X539Y1352D01*
X550Y1352D02*
X557Y1352D01*
X563Y1352D02*
X576Y1352D01*
X733Y1352D02*
X739Y1352D01*
X750Y1352D02*
X757Y1352D01*
X763Y1352D02*
X776Y1352D01*
X2933Y1352D02*
X2939Y1352D01*
X2950Y1352D02*
X2956Y1352D01*
X2963Y1352D02*
X2976Y1352D01*
X3133Y1352D02*
X3139Y1352D01*
X3150Y1352D02*
X3156Y1352D01*
X3163Y1352D02*
X3176Y1352D01*
X533Y1351D02*
X539Y1351D01*
X550Y1351D02*
X557Y1351D01*
X561Y1351D02*
X574Y1351D01*
X733Y1351D02*
X739Y1351D01*
X750Y1351D02*
X757Y1351D01*
X761Y1351D02*
X774Y1351D01*
X2933Y1351D02*
X2939Y1351D01*
X2950Y1351D02*
X2956Y1351D01*
X2961Y1351D02*
X2974Y1351D01*
X3133Y1351D02*
X3139Y1351D01*
X3150Y1351D02*
X3156Y1351D01*
X3161Y1351D02*
X3174Y1351D01*
X533Y1350D02*
X539Y1350D01*
X550Y1350D02*
X557Y1350D01*
X559Y1350D02*
X572Y1350D01*
X733Y1350D02*
X739Y1350D01*
X750Y1350D02*
X757Y1350D01*
X759Y1350D02*
X772Y1350D01*
X2933Y1350D02*
X2939Y1350D01*
X2950Y1350D02*
X2956Y1350D01*
X2959Y1350D02*
X2972Y1350D01*
X3133Y1350D02*
X3139Y1350D01*
X3150Y1350D02*
X3156Y1350D01*
X3159Y1350D02*
X3172Y1350D01*
X533Y1349D02*
X539Y1349D01*
X550Y1349D02*
X571Y1349D01*
X733Y1349D02*
X739Y1349D01*
X750Y1349D02*
X771Y1349D01*
X2933Y1349D02*
X2939Y1349D01*
X2950Y1349D02*
X2971Y1349D01*
X3133Y1349D02*
X3139Y1349D01*
X3150Y1349D02*
X3171Y1349D01*
X533Y1348D02*
X539Y1348D01*
X550Y1348D02*
X569Y1348D01*
X733Y1348D02*
X739Y1348D01*
X750Y1348D02*
X769Y1348D01*
X2933Y1348D02*
X2939Y1348D01*
X2950Y1348D02*
X2969Y1348D01*
X3133Y1348D02*
X3139Y1348D01*
X3150Y1348D02*
X3169Y1348D01*
X533Y1347D02*
X539Y1347D01*
X550Y1347D02*
X567Y1347D01*
X733Y1347D02*
X739Y1347D01*
X750Y1347D02*
X767Y1347D01*
X2933Y1347D02*
X2939Y1347D01*
X2950Y1347D02*
X2967Y1347D01*
X3133Y1347D02*
X3139Y1347D01*
X3150Y1347D02*
X3167Y1347D01*
X533Y1346D02*
X539Y1346D01*
X550Y1346D02*
X566Y1346D01*
X733Y1346D02*
X739Y1346D01*
X750Y1346D02*
X766Y1346D01*
X2933Y1346D02*
X2939Y1346D01*
X2950Y1346D02*
X2965Y1346D01*
X3133Y1346D02*
X3139Y1346D01*
X3150Y1346D02*
X3165Y1346D01*
X533Y1345D02*
X539Y1345D01*
X550Y1345D02*
X564Y1345D01*
X733Y1345D02*
X739Y1345D01*
X750Y1345D02*
X764Y1345D01*
X2933Y1345D02*
X2939Y1345D01*
X2950Y1345D02*
X2964Y1345D01*
X3133Y1345D02*
X3139Y1345D01*
X3150Y1345D02*
X3164Y1345D01*
X533Y1344D02*
X539Y1344D01*
X550Y1344D02*
X562Y1344D01*
X733Y1344D02*
X739Y1344D01*
X750Y1344D02*
X762Y1344D01*
X2933Y1344D02*
X2939Y1344D01*
X2950Y1344D02*
X2962Y1344D01*
X3133Y1344D02*
X3139Y1344D01*
X3150Y1344D02*
X3162Y1344D01*
X533Y1343D02*
X539Y1343D01*
X550Y1343D02*
X560Y1343D01*
X733Y1343D02*
X739Y1343D01*
X750Y1343D02*
X760Y1343D01*
X2933Y1343D02*
X2939Y1343D01*
X2950Y1343D02*
X2960Y1343D01*
X3133Y1343D02*
X3139Y1343D01*
X3150Y1343D02*
X3160Y1343D01*
X533Y1342D02*
X539Y1342D01*
X550Y1342D02*
X559Y1342D01*
X733Y1342D02*
X739Y1342D01*
X750Y1342D02*
X759Y1342D01*
X2933Y1342D02*
X2939Y1342D01*
X2950Y1342D02*
X2959Y1342D01*
X3133Y1342D02*
X3139Y1342D01*
X3150Y1342D02*
X3159Y1342D01*
X533Y1341D02*
X539Y1341D01*
X550Y1341D02*
X557Y1341D01*
X733Y1341D02*
X739Y1341D01*
X750Y1341D02*
X757Y1341D01*
X2933Y1341D02*
X2939Y1341D01*
X2950Y1341D02*
X2957Y1341D01*
X3133Y1341D02*
X3139Y1341D01*
X3150Y1341D02*
X3157Y1341D01*
X533Y1340D02*
X539Y1340D01*
X550Y1340D02*
X557Y1340D01*
X733Y1340D02*
X739Y1340D01*
X750Y1340D02*
X757Y1340D01*
X2933Y1340D02*
X2939Y1340D01*
X2950Y1340D02*
X2956Y1340D01*
X3133Y1340D02*
X3139Y1340D01*
X3150Y1340D02*
X3156Y1340D01*
X533Y1339D02*
X539Y1339D01*
X550Y1339D02*
X557Y1339D01*
X733Y1339D02*
X739Y1339D01*
X750Y1339D02*
X757Y1339D01*
X2933Y1339D02*
X2939Y1339D01*
X2950Y1339D02*
X2956Y1339D01*
X3133Y1339D02*
X3139Y1339D01*
X3150Y1339D02*
X3156Y1339D01*
X533Y1338D02*
X539Y1338D01*
X550Y1338D02*
X557Y1338D01*
X733Y1338D02*
X739Y1338D01*
X750Y1338D02*
X757Y1338D01*
X2933Y1338D02*
X2939Y1338D01*
X2950Y1338D02*
X2956Y1338D01*
X3133Y1338D02*
X3139Y1338D01*
X3150Y1338D02*
X3156Y1338D01*
X533Y1337D02*
X539Y1337D01*
X550Y1337D02*
X557Y1337D01*
X733Y1337D02*
X739Y1337D01*
X750Y1337D02*
X757Y1337D01*
X2933Y1337D02*
X2939Y1337D01*
X2950Y1337D02*
X2956Y1337D01*
X3133Y1337D02*
X3139Y1337D01*
X3150Y1337D02*
X3156Y1337D01*
X533Y1336D02*
X539Y1336D01*
X550Y1336D02*
X557Y1336D01*
X733Y1336D02*
X739Y1336D01*
X750Y1336D02*
X757Y1336D01*
X2933Y1336D02*
X2939Y1336D01*
X2950Y1336D02*
X2957Y1336D01*
X3133Y1336D02*
X3139Y1336D01*
X3150Y1336D02*
X3157Y1336D01*
X533Y1335D02*
X585Y1335D01*
X733Y1335D02*
X785Y1335D01*
X2933Y1335D02*
X2985Y1335D01*
X3133Y1335D02*
X3185Y1335D01*
X533Y1334D02*
X586Y1334D01*
X733Y1334D02*
X786Y1334D01*
X2933Y1334D02*
X2985Y1334D01*
X3133Y1334D02*
X3185Y1334D01*
X533Y1333D02*
X586Y1333D01*
X733Y1333D02*
X786Y1333D01*
X2933Y1333D02*
X2986Y1333D01*
X3133Y1333D02*
X3186Y1333D01*
X533Y1332D02*
X586Y1332D01*
X733Y1332D02*
X786Y1332D01*
X2933Y1332D02*
X2986Y1332D01*
X3133Y1332D02*
X3186Y1332D01*
X533Y1331D02*
X586Y1331D01*
X733Y1331D02*
X786Y1331D01*
X2933Y1331D02*
X2986Y1331D01*
X3133Y1331D02*
X3186Y1331D01*
X533Y1330D02*
X585Y1330D01*
X733Y1330D02*
X785Y1330D01*
X2933Y1330D02*
X2985Y1330D01*
X3133Y1330D02*
X3185Y1330D01*
X533Y1329D02*
X583Y1329D01*
X733Y1329D02*
X783Y1329D01*
X2933Y1329D02*
X2983Y1329D01*
X3133Y1329D02*
X3183Y1329D01*
X1759Y1283D02*
X1762Y1283D01*
X1785Y1283D02*
X1813Y1283D01*
X2359Y1283D02*
X2362Y1283D01*
X2387Y1283D02*
X2389Y1283D01*
X1758Y1282D02*
X1763Y1282D01*
X1784Y1282D02*
X1814Y1282D01*
X2358Y1282D02*
X2363Y1282D01*
X2386Y1282D02*
X2390Y1282D01*
X1758Y1281D02*
X1763Y1281D01*
X1784Y1281D02*
X1815Y1281D01*
X2358Y1281D02*
X2363Y1281D01*
X2385Y1281D02*
X2391Y1281D01*
X1758Y1280D02*
X1764Y1280D01*
X1784Y1280D02*
X1816Y1280D01*
X2358Y1280D02*
X2364Y1280D01*
X2385Y1280D02*
X2391Y1280D01*
X1758Y1279D02*
X1764Y1279D01*
X1784Y1279D02*
X1817Y1279D01*
X2358Y1279D02*
X2364Y1279D01*
X2385Y1279D02*
X2391Y1279D01*
X1758Y1278D02*
X1764Y1278D01*
X1784Y1278D02*
X1817Y1278D01*
X2358Y1278D02*
X2364Y1278D01*
X2385Y1278D02*
X2391Y1278D01*
X1758Y1277D02*
X1764Y1277D01*
X1785Y1277D02*
X1817Y1277D01*
X2358Y1277D02*
X2364Y1277D01*
X2385Y1277D02*
X2391Y1277D01*
X2407Y1277D02*
X2410Y1277D01*
X1758Y1276D02*
X1764Y1276D01*
X1811Y1276D02*
X1817Y1276D01*
X2358Y1276D02*
X2364Y1276D01*
X2385Y1276D02*
X2391Y1276D01*
X2406Y1276D02*
X2411Y1276D01*
X1758Y1275D02*
X1764Y1275D01*
X1811Y1275D02*
X1817Y1275D01*
X2358Y1275D02*
X2364Y1275D01*
X2385Y1275D02*
X2391Y1275D01*
X2406Y1275D02*
X2412Y1275D01*
X1758Y1274D02*
X1764Y1274D01*
X1811Y1274D02*
X1817Y1274D01*
X2358Y1274D02*
X2364Y1274D01*
X2385Y1274D02*
X2391Y1274D01*
X2406Y1274D02*
X2412Y1274D01*
X1758Y1273D02*
X1764Y1273D01*
X1811Y1273D02*
X1817Y1273D01*
X2358Y1273D02*
X2364Y1273D01*
X2385Y1273D02*
X2391Y1273D01*
X2406Y1273D02*
X2412Y1273D01*
X1758Y1272D02*
X1764Y1272D01*
X1811Y1272D02*
X1817Y1272D01*
X2358Y1272D02*
X2364Y1272D01*
X2385Y1272D02*
X2391Y1272D01*
X2406Y1272D02*
X2412Y1272D01*
X1758Y1271D02*
X1764Y1271D01*
X1811Y1271D02*
X1817Y1271D01*
X2358Y1271D02*
X2364Y1271D01*
X2385Y1271D02*
X2391Y1271D01*
X2406Y1271D02*
X2412Y1271D01*
X1758Y1270D02*
X1764Y1270D01*
X1811Y1270D02*
X1817Y1270D01*
X2358Y1270D02*
X2364Y1270D01*
X2385Y1270D02*
X2391Y1270D01*
X2406Y1270D02*
X2412Y1270D01*
X1758Y1269D02*
X1764Y1269D01*
X1811Y1269D02*
X1817Y1269D01*
X2358Y1269D02*
X2364Y1269D01*
X2385Y1269D02*
X2391Y1269D01*
X2406Y1269D02*
X2412Y1269D01*
X1758Y1268D02*
X1764Y1268D01*
X1811Y1268D02*
X1817Y1268D01*
X2358Y1268D02*
X2364Y1268D01*
X2385Y1268D02*
X2391Y1268D01*
X2406Y1268D02*
X2412Y1268D01*
X1758Y1267D02*
X1764Y1267D01*
X1811Y1267D02*
X1817Y1267D01*
X2358Y1267D02*
X2364Y1267D01*
X2385Y1267D02*
X2391Y1267D01*
X2406Y1267D02*
X2412Y1267D01*
X1758Y1266D02*
X1764Y1266D01*
X1811Y1266D02*
X1817Y1266D01*
X2358Y1266D02*
X2364Y1266D01*
X2385Y1266D02*
X2391Y1266D01*
X2406Y1266D02*
X2412Y1266D01*
X1758Y1265D02*
X1764Y1265D01*
X1811Y1265D02*
X1817Y1265D01*
X2358Y1265D02*
X2364Y1265D01*
X2385Y1265D02*
X2391Y1265D01*
X2406Y1265D02*
X2412Y1265D01*
X1758Y1264D02*
X1764Y1264D01*
X1811Y1264D02*
X1817Y1264D01*
X2358Y1264D02*
X2364Y1264D01*
X2385Y1264D02*
X2391Y1264D01*
X2406Y1264D02*
X2412Y1264D01*
X1758Y1263D02*
X1764Y1263D01*
X1811Y1263D02*
X1817Y1263D01*
X2358Y1263D02*
X2364Y1263D01*
X2385Y1263D02*
X2391Y1263D01*
X2406Y1263D02*
X2412Y1263D01*
X1758Y1262D02*
X1764Y1262D01*
X1811Y1262D02*
X1817Y1262D01*
X2358Y1262D02*
X2364Y1262D01*
X2385Y1262D02*
X2391Y1262D01*
X2406Y1262D02*
X2412Y1262D01*
X1758Y1261D02*
X1764Y1261D01*
X1810Y1261D02*
X1817Y1261D01*
X2358Y1261D02*
X2364Y1261D01*
X2385Y1261D02*
X2391Y1261D01*
X2406Y1261D02*
X2412Y1261D01*
X1758Y1260D02*
X1764Y1260D01*
X1808Y1260D02*
X1816Y1260D01*
X2358Y1260D02*
X2364Y1260D01*
X2385Y1260D02*
X2391Y1260D01*
X2406Y1260D02*
X2412Y1260D01*
X1758Y1259D02*
X1764Y1259D01*
X1792Y1259D02*
X1816Y1259D01*
X2358Y1259D02*
X2364Y1259D01*
X2385Y1259D02*
X2391Y1259D01*
X2406Y1259D02*
X2412Y1259D01*
X1758Y1258D02*
X1764Y1258D01*
X1791Y1258D02*
X1815Y1258D01*
X2358Y1258D02*
X2364Y1258D01*
X2385Y1258D02*
X2391Y1258D01*
X2406Y1258D02*
X2412Y1258D01*
X1758Y1257D02*
X1764Y1257D01*
X1790Y1257D02*
X1815Y1257D01*
X2358Y1257D02*
X2364Y1257D01*
X2385Y1257D02*
X2391Y1257D01*
X2406Y1257D02*
X2412Y1257D01*
X1758Y1256D02*
X1764Y1256D01*
X1790Y1256D02*
X1815Y1256D01*
X2358Y1256D02*
X2364Y1256D01*
X2385Y1256D02*
X2391Y1256D01*
X2406Y1256D02*
X2412Y1256D01*
X1758Y1255D02*
X1764Y1255D01*
X1791Y1255D02*
X1815Y1255D01*
X2358Y1255D02*
X2364Y1255D01*
X2385Y1255D02*
X2391Y1255D01*
X2406Y1255D02*
X2412Y1255D01*
X1740Y1254D02*
X1740Y1254D01*
X1758Y1254D02*
X1764Y1254D01*
X1791Y1254D02*
X1816Y1254D01*
X2340Y1254D02*
X2340Y1254D01*
X2358Y1254D02*
X2364Y1254D01*
X2385Y1254D02*
X2412Y1254D01*
X1738Y1253D02*
X1742Y1253D01*
X1758Y1253D02*
X1764Y1253D01*
X1794Y1253D02*
X1816Y1253D01*
X2338Y1253D02*
X2342Y1253D01*
X2358Y1253D02*
X2364Y1253D01*
X2385Y1253D02*
X2414Y1253D01*
X1737Y1252D02*
X1743Y1252D01*
X1758Y1252D02*
X1764Y1252D01*
X1810Y1252D02*
X1817Y1252D01*
X2337Y1252D02*
X2342Y1252D01*
X2358Y1252D02*
X2364Y1252D01*
X2385Y1252D02*
X2415Y1252D01*
X1737Y1251D02*
X1743Y1251D01*
X1758Y1251D02*
X1764Y1251D01*
X1811Y1251D02*
X1817Y1251D01*
X2337Y1251D02*
X2343Y1251D01*
X2358Y1251D02*
X2364Y1251D01*
X2385Y1251D02*
X2415Y1251D01*
X1737Y1250D02*
X1743Y1250D01*
X1758Y1250D02*
X1764Y1250D01*
X1811Y1250D02*
X1817Y1250D01*
X2337Y1250D02*
X2343Y1250D01*
X2358Y1250D02*
X2364Y1250D01*
X2385Y1250D02*
X2415Y1250D01*
X1737Y1249D02*
X1743Y1249D01*
X1758Y1249D02*
X1764Y1249D01*
X1811Y1249D02*
X1817Y1249D01*
X2337Y1249D02*
X2343Y1249D01*
X2358Y1249D02*
X2364Y1249D01*
X2385Y1249D02*
X2415Y1249D01*
X1737Y1248D02*
X1743Y1248D01*
X1758Y1248D02*
X1764Y1248D01*
X1811Y1248D02*
X1817Y1248D01*
X2337Y1248D02*
X2343Y1248D01*
X2358Y1248D02*
X2364Y1248D01*
X2385Y1248D02*
X2414Y1248D01*
X1737Y1247D02*
X1743Y1247D01*
X1758Y1247D02*
X1764Y1247D01*
X1811Y1247D02*
X1817Y1247D01*
X2337Y1247D02*
X2343Y1247D01*
X2358Y1247D02*
X2364Y1247D01*
X2405Y1247D02*
X2412Y1247D01*
X1737Y1246D02*
X1743Y1246D01*
X1758Y1246D02*
X1764Y1246D01*
X1811Y1246D02*
X1817Y1246D01*
X2337Y1246D02*
X2343Y1246D01*
X2358Y1246D02*
X2364Y1246D01*
X2406Y1246D02*
X2412Y1246D01*
X1737Y1245D02*
X1743Y1245D01*
X1758Y1245D02*
X1764Y1245D01*
X1811Y1245D02*
X1817Y1245D01*
X2337Y1245D02*
X2343Y1245D01*
X2358Y1245D02*
X2364Y1245D01*
X2406Y1245D02*
X2412Y1245D01*
X1737Y1244D02*
X1743Y1244D01*
X1758Y1244D02*
X1764Y1244D01*
X1811Y1244D02*
X1817Y1244D01*
X2337Y1244D02*
X2343Y1244D01*
X2358Y1244D02*
X2364Y1244D01*
X2406Y1244D02*
X2412Y1244D01*
X1737Y1243D02*
X1743Y1243D01*
X1758Y1243D02*
X1764Y1243D01*
X1811Y1243D02*
X1817Y1243D01*
X2337Y1243D02*
X2343Y1243D01*
X2358Y1243D02*
X2364Y1243D01*
X2406Y1243D02*
X2412Y1243D01*
X1737Y1242D02*
X1743Y1242D01*
X1758Y1242D02*
X1764Y1242D01*
X1811Y1242D02*
X1817Y1242D01*
X2337Y1242D02*
X2343Y1242D01*
X2358Y1242D02*
X2364Y1242D01*
X2406Y1242D02*
X2412Y1242D01*
X1737Y1241D02*
X1743Y1241D01*
X1758Y1241D02*
X1764Y1241D01*
X1811Y1241D02*
X1817Y1241D01*
X2337Y1241D02*
X2343Y1241D01*
X2358Y1241D02*
X2364Y1241D01*
X2406Y1241D02*
X2412Y1241D01*
X1737Y1240D02*
X1743Y1240D01*
X1758Y1240D02*
X1764Y1240D01*
X1811Y1240D02*
X1817Y1240D01*
X2337Y1240D02*
X2343Y1240D01*
X2358Y1240D02*
X2364Y1240D01*
X2406Y1240D02*
X2412Y1240D01*
X1737Y1239D02*
X1743Y1239D01*
X1757Y1239D02*
X1763Y1239D01*
X1811Y1239D02*
X1817Y1239D01*
X2337Y1239D02*
X2343Y1239D01*
X2357Y1239D02*
X2363Y1239D01*
X2406Y1239D02*
X2412Y1239D01*
X1737Y1238D02*
X1743Y1238D01*
X1757Y1238D02*
X1763Y1238D01*
X1811Y1238D02*
X1817Y1238D01*
X2337Y1238D02*
X2343Y1238D01*
X2357Y1238D02*
X2363Y1238D01*
X2406Y1238D02*
X2412Y1238D01*
X1737Y1237D02*
X1744Y1237D01*
X1756Y1237D02*
X1763Y1237D01*
X1811Y1237D02*
X1817Y1237D01*
X2337Y1237D02*
X2344Y1237D01*
X2356Y1237D02*
X2363Y1237D01*
X2406Y1237D02*
X2412Y1237D01*
X1738Y1236D02*
X1763Y1236D01*
X1785Y1236D02*
X1817Y1236D01*
X2338Y1236D02*
X2363Y1236D01*
X2406Y1236D02*
X2412Y1236D01*
X1738Y1235D02*
X1762Y1235D01*
X1784Y1235D02*
X1817Y1235D01*
X2338Y1235D02*
X2362Y1235D01*
X2406Y1235D02*
X2412Y1235D01*
X1739Y1234D02*
X1762Y1234D01*
X1784Y1234D02*
X1817Y1234D01*
X2339Y1234D02*
X2362Y1234D01*
X2406Y1234D02*
X2412Y1234D01*
X1740Y1233D02*
X1761Y1233D01*
X1784Y1233D02*
X1816Y1233D01*
X2340Y1233D02*
X2361Y1233D01*
X2406Y1233D02*
X2412Y1233D01*
X1741Y1232D02*
X1760Y1232D01*
X1784Y1232D02*
X1815Y1232D01*
X2341Y1232D02*
X2360Y1232D01*
X2406Y1232D02*
X2412Y1232D01*
X1742Y1231D02*
X1759Y1231D01*
X1784Y1231D02*
X1814Y1231D01*
X2342Y1231D02*
X2359Y1231D01*
X2406Y1231D02*
X2411Y1231D01*
X1744Y1230D02*
X1757Y1230D01*
X1785Y1230D02*
X1813Y1230D01*
X2344Y1230D02*
X2357Y1230D01*
X2407Y1230D02*
X2410Y1230D01*
X559Y1133D02*
X562Y1133D01*
X585Y1133D02*
X603Y1133D01*
X1159Y1133D02*
X1162Y1133D01*
X1185Y1133D02*
X1213Y1133D01*
X2959Y1133D02*
X2962Y1133D01*
X2990Y1133D02*
X3015Y1133D01*
X3559Y1133D02*
X3562Y1133D01*
X3585Y1133D02*
X3591Y1133D01*
X558Y1132D02*
X563Y1132D01*
X584Y1132D02*
X603Y1132D01*
X1158Y1132D02*
X1163Y1132D01*
X1184Y1132D02*
X1214Y1132D01*
X2958Y1132D02*
X2963Y1132D01*
X2990Y1132D02*
X3016Y1132D01*
X3558Y1132D02*
X3563Y1132D01*
X3584Y1132D02*
X3592Y1132D01*
X558Y1131D02*
X563Y1131D01*
X584Y1131D02*
X603Y1131D01*
X1158Y1131D02*
X1163Y1131D01*
X1184Y1131D02*
X1215Y1131D01*
X2958Y1131D02*
X2963Y1131D01*
X2990Y1131D02*
X3017Y1131D01*
X3558Y1131D02*
X3563Y1131D01*
X3584Y1131D02*
X3593Y1131D01*
X558Y1130D02*
X564Y1130D01*
X584Y1130D02*
X603Y1130D01*
X1158Y1130D02*
X1164Y1130D01*
X1184Y1130D02*
X1216Y1130D01*
X2958Y1130D02*
X2964Y1130D01*
X2990Y1130D02*
X3017Y1130D01*
X3558Y1130D02*
X3564Y1130D01*
X3583Y1130D02*
X3593Y1130D01*
X558Y1129D02*
X564Y1129D01*
X584Y1129D02*
X603Y1129D01*
X1158Y1129D02*
X1164Y1129D01*
X1184Y1129D02*
X1217Y1129D01*
X2958Y1129D02*
X2964Y1129D01*
X2990Y1129D02*
X3017Y1129D01*
X3557Y1129D02*
X3564Y1129D01*
X3583Y1129D02*
X3593Y1129D01*
X558Y1128D02*
X564Y1128D01*
X584Y1128D02*
X603Y1128D01*
X1158Y1128D02*
X1164Y1128D01*
X1184Y1128D02*
X1217Y1128D01*
X2958Y1128D02*
X2964Y1128D01*
X2990Y1128D02*
X3016Y1128D01*
X3557Y1128D02*
X3564Y1128D01*
X3583Y1128D02*
X3592Y1128D01*
X558Y1127D02*
X564Y1127D01*
X585Y1127D02*
X603Y1127D01*
X1158Y1127D02*
X1164Y1127D01*
X1185Y1127D02*
X1217Y1127D01*
X2958Y1127D02*
X2964Y1127D01*
X2990Y1127D02*
X3015Y1127D01*
X3557Y1127D02*
X3564Y1127D01*
X3583Y1127D02*
X3591Y1127D01*
X558Y1126D02*
X564Y1126D01*
X597Y1126D02*
X603Y1126D01*
X1158Y1126D02*
X1164Y1126D01*
X1211Y1126D02*
X1217Y1126D01*
X2958Y1126D02*
X2964Y1126D01*
X2990Y1126D02*
X2996Y1126D01*
X3557Y1126D02*
X3564Y1126D01*
X3583Y1126D02*
X3589Y1126D01*
X558Y1125D02*
X564Y1125D01*
X597Y1125D02*
X603Y1125D01*
X1158Y1125D02*
X1164Y1125D01*
X1211Y1125D02*
X1217Y1125D01*
X2958Y1125D02*
X2964Y1125D01*
X2990Y1125D02*
X2996Y1125D01*
X3557Y1125D02*
X3564Y1125D01*
X3583Y1125D02*
X3589Y1125D01*
X558Y1124D02*
X564Y1124D01*
X597Y1124D02*
X603Y1124D01*
X1158Y1124D02*
X1164Y1124D01*
X1211Y1124D02*
X1217Y1124D01*
X2958Y1124D02*
X2964Y1124D01*
X2990Y1124D02*
X2996Y1124D01*
X3557Y1124D02*
X3564Y1124D01*
X3583Y1124D02*
X3589Y1124D01*
X558Y1123D02*
X564Y1123D01*
X597Y1123D02*
X603Y1123D01*
X1158Y1123D02*
X1164Y1123D01*
X1211Y1123D02*
X1217Y1123D01*
X2958Y1123D02*
X2964Y1123D01*
X2990Y1123D02*
X2996Y1123D01*
X3557Y1123D02*
X3564Y1123D01*
X3583Y1123D02*
X3589Y1123D01*
X558Y1122D02*
X564Y1122D01*
X597Y1122D02*
X603Y1122D01*
X1158Y1122D02*
X1164Y1122D01*
X1211Y1122D02*
X1217Y1122D01*
X2958Y1122D02*
X2964Y1122D01*
X2990Y1122D02*
X2996Y1122D01*
X3557Y1122D02*
X3564Y1122D01*
X3583Y1122D02*
X3589Y1122D01*
X558Y1121D02*
X564Y1121D01*
X597Y1121D02*
X603Y1121D01*
X1158Y1121D02*
X1164Y1121D01*
X1211Y1121D02*
X1217Y1121D01*
X2958Y1121D02*
X2964Y1121D01*
X2990Y1121D02*
X2996Y1121D01*
X3557Y1121D02*
X3564Y1121D01*
X3583Y1121D02*
X3589Y1121D01*
X558Y1120D02*
X564Y1120D01*
X597Y1120D02*
X603Y1120D01*
X1158Y1120D02*
X1164Y1120D01*
X1211Y1120D02*
X1217Y1120D01*
X2958Y1120D02*
X2964Y1120D01*
X2990Y1120D02*
X2996Y1120D01*
X3557Y1120D02*
X3564Y1120D01*
X3583Y1120D02*
X3589Y1120D01*
X558Y1119D02*
X564Y1119D01*
X597Y1119D02*
X603Y1119D01*
X1158Y1119D02*
X1164Y1119D01*
X1211Y1119D02*
X1217Y1119D01*
X2958Y1119D02*
X2964Y1119D01*
X2990Y1119D02*
X2996Y1119D01*
X3557Y1119D02*
X3564Y1119D01*
X3583Y1119D02*
X3589Y1119D01*
X558Y1118D02*
X564Y1118D01*
X597Y1118D02*
X603Y1118D01*
X1158Y1118D02*
X1164Y1118D01*
X1211Y1118D02*
X1217Y1118D01*
X2958Y1118D02*
X2964Y1118D01*
X2990Y1118D02*
X2996Y1118D01*
X3557Y1118D02*
X3564Y1118D01*
X3583Y1118D02*
X3589Y1118D01*
X558Y1117D02*
X564Y1117D01*
X597Y1117D02*
X603Y1117D01*
X1158Y1117D02*
X1164Y1117D01*
X1211Y1117D02*
X1217Y1117D01*
X2958Y1117D02*
X2964Y1117D01*
X2990Y1117D02*
X2996Y1117D01*
X3557Y1117D02*
X3564Y1117D01*
X3583Y1117D02*
X3589Y1117D01*
X558Y1116D02*
X564Y1116D01*
X597Y1116D02*
X603Y1116D01*
X1158Y1116D02*
X1164Y1116D01*
X1211Y1116D02*
X1217Y1116D01*
X2958Y1116D02*
X2964Y1116D01*
X2990Y1116D02*
X2996Y1116D01*
X3557Y1116D02*
X3564Y1116D01*
X3583Y1116D02*
X3589Y1116D01*
X558Y1115D02*
X564Y1115D01*
X597Y1115D02*
X603Y1115D01*
X1158Y1115D02*
X1164Y1115D01*
X1211Y1115D02*
X1217Y1115D01*
X2958Y1115D02*
X2964Y1115D01*
X2990Y1115D02*
X2996Y1115D01*
X3557Y1115D02*
X3564Y1115D01*
X3583Y1115D02*
X3589Y1115D01*
X558Y1114D02*
X564Y1114D01*
X597Y1114D02*
X603Y1114D01*
X1158Y1114D02*
X1164Y1114D01*
X1211Y1114D02*
X1217Y1114D01*
X2958Y1114D02*
X2964Y1114D01*
X2990Y1114D02*
X2996Y1114D01*
X3557Y1114D02*
X3564Y1114D01*
X3583Y1114D02*
X3589Y1114D01*
X558Y1113D02*
X564Y1113D01*
X597Y1113D02*
X603Y1113D01*
X1158Y1113D02*
X1164Y1113D01*
X1211Y1113D02*
X1217Y1113D01*
X2958Y1113D02*
X2964Y1113D01*
X2990Y1113D02*
X2996Y1113D01*
X3557Y1113D02*
X3564Y1113D01*
X3583Y1113D02*
X3589Y1113D01*
X558Y1112D02*
X564Y1112D01*
X597Y1112D02*
X603Y1112D01*
X1158Y1112D02*
X1164Y1112D01*
X1211Y1112D02*
X1217Y1112D01*
X2958Y1112D02*
X2964Y1112D01*
X2990Y1112D02*
X2996Y1112D01*
X3557Y1112D02*
X3564Y1112D01*
X3583Y1112D02*
X3589Y1112D01*
X558Y1111D02*
X564Y1111D01*
X597Y1111D02*
X603Y1111D01*
X1158Y1111D02*
X1164Y1111D01*
X1211Y1111D02*
X1217Y1111D01*
X2958Y1111D02*
X2964Y1111D01*
X2990Y1111D02*
X2996Y1111D01*
X3557Y1111D02*
X3564Y1111D01*
X3583Y1111D02*
X3589Y1111D01*
X558Y1110D02*
X564Y1110D01*
X597Y1110D02*
X603Y1110D01*
X1158Y1110D02*
X1164Y1110D01*
X1211Y1110D02*
X1217Y1110D01*
X2958Y1110D02*
X2964Y1110D01*
X2990Y1110D02*
X3011Y1110D01*
X3557Y1110D02*
X3564Y1110D01*
X3583Y1110D02*
X3589Y1110D01*
X558Y1109D02*
X564Y1109D01*
X597Y1109D02*
X603Y1109D01*
X1158Y1109D02*
X1164Y1109D01*
X1187Y1109D02*
X1217Y1109D01*
X2958Y1109D02*
X2964Y1109D01*
X2990Y1109D02*
X3014Y1109D01*
X3557Y1109D02*
X3564Y1109D01*
X3583Y1109D02*
X3589Y1109D01*
X558Y1108D02*
X564Y1108D01*
X597Y1108D02*
X603Y1108D01*
X1158Y1108D02*
X1164Y1108D01*
X1186Y1108D02*
X1217Y1108D01*
X2958Y1108D02*
X2964Y1108D01*
X2990Y1108D02*
X3015Y1108D01*
X3557Y1108D02*
X3564Y1108D01*
X3583Y1108D02*
X3589Y1108D01*
X558Y1107D02*
X564Y1107D01*
X597Y1107D02*
X603Y1107D01*
X1158Y1107D02*
X1164Y1107D01*
X1185Y1107D02*
X1216Y1107D01*
X2958Y1107D02*
X2964Y1107D01*
X2990Y1107D02*
X3016Y1107D01*
X3557Y1107D02*
X3564Y1107D01*
X3583Y1107D02*
X3589Y1107D01*
X558Y1106D02*
X564Y1106D01*
X597Y1106D02*
X603Y1106D01*
X1158Y1106D02*
X1164Y1106D01*
X1184Y1106D02*
X1216Y1106D01*
X2958Y1106D02*
X2964Y1106D01*
X2990Y1106D02*
X3016Y1106D01*
X3557Y1106D02*
X3564Y1106D01*
X3583Y1106D02*
X3589Y1106D01*
X558Y1105D02*
X564Y1105D01*
X597Y1105D02*
X603Y1105D01*
X1158Y1105D02*
X1164Y1105D01*
X1184Y1105D02*
X1215Y1105D01*
X2958Y1105D02*
X2964Y1105D01*
X2990Y1105D02*
X3017Y1105D01*
X3557Y1105D02*
X3564Y1105D01*
X3583Y1105D02*
X3589Y1105D01*
X540Y1104D02*
X540Y1104D01*
X558Y1104D02*
X564Y1104D01*
X597Y1104D02*
X603Y1104D01*
X614Y1104D02*
X614Y1104D01*
X1140Y1104D02*
X1140Y1104D01*
X1158Y1104D02*
X1164Y1104D01*
X1184Y1104D02*
X1214Y1104D01*
X2940Y1104D02*
X2940Y1104D01*
X2958Y1104D02*
X2964Y1104D01*
X2990Y1104D02*
X3017Y1104D01*
X3540Y1104D02*
X3540Y1104D01*
X3557Y1104D02*
X3564Y1104D01*
X3583Y1104D02*
X3614Y1104D01*
X538Y1103D02*
X542Y1103D01*
X558Y1103D02*
X564Y1103D01*
X597Y1103D02*
X603Y1103D01*
X612Y1103D02*
X616Y1103D01*
X1138Y1103D02*
X1142Y1103D01*
X1158Y1103D02*
X1164Y1103D01*
X1183Y1103D02*
X1190Y1103D01*
X2938Y1103D02*
X2942Y1103D01*
X2958Y1103D02*
X2964Y1103D01*
X3011Y1103D02*
X3017Y1103D01*
X3538Y1103D02*
X3542Y1103D01*
X3557Y1103D02*
X3564Y1103D01*
X3583Y1103D02*
X3616Y1103D01*
X537Y1102D02*
X543Y1102D01*
X558Y1102D02*
X564Y1102D01*
X597Y1102D02*
X603Y1102D01*
X611Y1102D02*
X617Y1102D01*
X1137Y1102D02*
X1143Y1102D01*
X1158Y1102D02*
X1164Y1102D01*
X1183Y1102D02*
X1190Y1102D01*
X2937Y1102D02*
X2943Y1102D01*
X2958Y1102D02*
X2964Y1102D01*
X3011Y1102D02*
X3017Y1102D01*
X3537Y1102D02*
X3543Y1102D01*
X3557Y1102D02*
X3564Y1102D01*
X3583Y1102D02*
X3617Y1102D01*
X537Y1101D02*
X543Y1101D01*
X558Y1101D02*
X564Y1101D01*
X597Y1101D02*
X603Y1101D01*
X611Y1101D02*
X617Y1101D01*
X1137Y1101D02*
X1143Y1101D01*
X1158Y1101D02*
X1164Y1101D01*
X1183Y1101D02*
X1190Y1101D01*
X2937Y1101D02*
X2943Y1101D01*
X2958Y1101D02*
X2964Y1101D01*
X3011Y1101D02*
X3017Y1101D01*
X3537Y1101D02*
X3543Y1101D01*
X3557Y1101D02*
X3564Y1101D01*
X3583Y1101D02*
X3617Y1101D01*
X537Y1100D02*
X543Y1100D01*
X558Y1100D02*
X564Y1100D01*
X597Y1100D02*
X603Y1100D01*
X611Y1100D02*
X617Y1100D01*
X1137Y1100D02*
X1143Y1100D01*
X1158Y1100D02*
X1164Y1100D01*
X1183Y1100D02*
X1190Y1100D01*
X2937Y1100D02*
X2943Y1100D01*
X2958Y1100D02*
X2964Y1100D01*
X3011Y1100D02*
X3017Y1100D01*
X3537Y1100D02*
X3543Y1100D01*
X3557Y1100D02*
X3564Y1100D01*
X3583Y1100D02*
X3617Y1100D01*
X537Y1099D02*
X543Y1099D01*
X558Y1099D02*
X564Y1099D01*
X597Y1099D02*
X603Y1099D01*
X611Y1099D02*
X617Y1099D01*
X1137Y1099D02*
X1143Y1099D01*
X1158Y1099D02*
X1164Y1099D01*
X1183Y1099D02*
X1190Y1099D01*
X2937Y1099D02*
X2943Y1099D01*
X2958Y1099D02*
X2964Y1099D01*
X3011Y1099D02*
X3017Y1099D01*
X3537Y1099D02*
X3543Y1099D01*
X3557Y1099D02*
X3564Y1099D01*
X3583Y1099D02*
X3617Y1099D01*
X537Y1098D02*
X543Y1098D01*
X558Y1098D02*
X564Y1098D01*
X597Y1098D02*
X603Y1098D01*
X611Y1098D02*
X617Y1098D01*
X1137Y1098D02*
X1143Y1098D01*
X1158Y1098D02*
X1164Y1098D01*
X1183Y1098D02*
X1190Y1098D01*
X2937Y1098D02*
X2943Y1098D01*
X2958Y1098D02*
X2964Y1098D01*
X3011Y1098D02*
X3017Y1098D01*
X3537Y1098D02*
X3543Y1098D01*
X3557Y1098D02*
X3564Y1098D01*
X3583Y1098D02*
X3617Y1098D01*
X537Y1097D02*
X543Y1097D01*
X558Y1097D02*
X564Y1097D01*
X597Y1097D02*
X603Y1097D01*
X611Y1097D02*
X617Y1097D01*
X1137Y1097D02*
X1143Y1097D01*
X1158Y1097D02*
X1164Y1097D01*
X1183Y1097D02*
X1190Y1097D01*
X2937Y1097D02*
X2943Y1097D01*
X2958Y1097D02*
X2964Y1097D01*
X3011Y1097D02*
X3017Y1097D01*
X3537Y1097D02*
X3543Y1097D01*
X3557Y1097D02*
X3564Y1097D01*
X3583Y1097D02*
X3590Y1097D01*
X3611Y1097D02*
X3617Y1097D01*
X537Y1096D02*
X543Y1096D01*
X558Y1096D02*
X564Y1096D01*
X597Y1096D02*
X603Y1096D01*
X611Y1096D02*
X617Y1096D01*
X1137Y1096D02*
X1143Y1096D01*
X1158Y1096D02*
X1164Y1096D01*
X1183Y1096D02*
X1190Y1096D01*
X2937Y1096D02*
X2943Y1096D01*
X2958Y1096D02*
X2964Y1096D01*
X3011Y1096D02*
X3017Y1096D01*
X3537Y1096D02*
X3543Y1096D01*
X3557Y1096D02*
X3564Y1096D01*
X3583Y1096D02*
X3589Y1096D01*
X3611Y1096D02*
X3617Y1096D01*
X537Y1095D02*
X543Y1095D01*
X558Y1095D02*
X564Y1095D01*
X597Y1095D02*
X603Y1095D01*
X611Y1095D02*
X617Y1095D01*
X1137Y1095D02*
X1143Y1095D01*
X1158Y1095D02*
X1164Y1095D01*
X1183Y1095D02*
X1190Y1095D01*
X2937Y1095D02*
X2943Y1095D01*
X2958Y1095D02*
X2964Y1095D01*
X3011Y1095D02*
X3017Y1095D01*
X3537Y1095D02*
X3543Y1095D01*
X3557Y1095D02*
X3564Y1095D01*
X3583Y1095D02*
X3589Y1095D01*
X3611Y1095D02*
X3617Y1095D01*
X537Y1094D02*
X543Y1094D01*
X558Y1094D02*
X564Y1094D01*
X597Y1094D02*
X603Y1094D01*
X611Y1094D02*
X617Y1094D01*
X1137Y1094D02*
X1143Y1094D01*
X1158Y1094D02*
X1164Y1094D01*
X1183Y1094D02*
X1190Y1094D01*
X2937Y1094D02*
X2943Y1094D01*
X2958Y1094D02*
X2964Y1094D01*
X3011Y1094D02*
X3017Y1094D01*
X3537Y1094D02*
X3543Y1094D01*
X3557Y1094D02*
X3564Y1094D01*
X3583Y1094D02*
X3589Y1094D01*
X3611Y1094D02*
X3617Y1094D01*
X537Y1093D02*
X543Y1093D01*
X558Y1093D02*
X564Y1093D01*
X597Y1093D02*
X603Y1093D01*
X611Y1093D02*
X617Y1093D01*
X1137Y1093D02*
X1143Y1093D01*
X1158Y1093D02*
X1164Y1093D01*
X1183Y1093D02*
X1190Y1093D01*
X2937Y1093D02*
X2943Y1093D01*
X2958Y1093D02*
X2964Y1093D01*
X3011Y1093D02*
X3017Y1093D01*
X3537Y1093D02*
X3543Y1093D01*
X3557Y1093D02*
X3564Y1093D01*
X3583Y1093D02*
X3589Y1093D01*
X3611Y1093D02*
X3617Y1093D01*
X537Y1092D02*
X543Y1092D01*
X558Y1092D02*
X564Y1092D01*
X597Y1092D02*
X603Y1092D01*
X611Y1092D02*
X617Y1092D01*
X1137Y1092D02*
X1143Y1092D01*
X1158Y1092D02*
X1164Y1092D01*
X1183Y1092D02*
X1190Y1092D01*
X2937Y1092D02*
X2943Y1092D01*
X2958Y1092D02*
X2964Y1092D01*
X3011Y1092D02*
X3017Y1092D01*
X3537Y1092D02*
X3543Y1092D01*
X3557Y1092D02*
X3564Y1092D01*
X3583Y1092D02*
X3589Y1092D01*
X3611Y1092D02*
X3617Y1092D01*
X537Y1091D02*
X543Y1091D01*
X558Y1091D02*
X564Y1091D01*
X597Y1091D02*
X603Y1091D01*
X611Y1091D02*
X617Y1091D01*
X1137Y1091D02*
X1143Y1091D01*
X1158Y1091D02*
X1164Y1091D01*
X1183Y1091D02*
X1190Y1091D01*
X2937Y1091D02*
X2943Y1091D01*
X2958Y1091D02*
X2964Y1091D01*
X3011Y1091D02*
X3017Y1091D01*
X3537Y1091D02*
X3543Y1091D01*
X3557Y1091D02*
X3564Y1091D01*
X3583Y1091D02*
X3589Y1091D01*
X3611Y1091D02*
X3617Y1091D01*
X537Y1090D02*
X543Y1090D01*
X558Y1090D02*
X564Y1090D01*
X597Y1090D02*
X603Y1090D01*
X611Y1090D02*
X617Y1090D01*
X1137Y1090D02*
X1143Y1090D01*
X1158Y1090D02*
X1164Y1090D01*
X1183Y1090D02*
X1190Y1090D01*
X2937Y1090D02*
X2943Y1090D01*
X2958Y1090D02*
X2964Y1090D01*
X3011Y1090D02*
X3017Y1090D01*
X3537Y1090D02*
X3543Y1090D01*
X3557Y1090D02*
X3564Y1090D01*
X3583Y1090D02*
X3589Y1090D01*
X3611Y1090D02*
X3617Y1090D01*
X537Y1089D02*
X543Y1089D01*
X557Y1089D02*
X564Y1089D01*
X597Y1089D02*
X603Y1089D01*
X611Y1089D02*
X617Y1089D01*
X1137Y1089D02*
X1143Y1089D01*
X1157Y1089D02*
X1164Y1089D01*
X1183Y1089D02*
X1190Y1089D01*
X2937Y1089D02*
X2943Y1089D01*
X2957Y1089D02*
X2963Y1089D01*
X2985Y1089D02*
X2987Y1089D01*
X3011Y1089D02*
X3017Y1089D01*
X3537Y1089D02*
X3543Y1089D01*
X3557Y1089D02*
X3563Y1089D01*
X3583Y1089D02*
X3589Y1089D01*
X3611Y1089D02*
X3617Y1089D01*
X537Y1088D02*
X544Y1088D01*
X557Y1088D02*
X563Y1088D01*
X597Y1088D02*
X603Y1088D01*
X611Y1088D02*
X617Y1088D01*
X1137Y1088D02*
X1144Y1088D01*
X1157Y1088D02*
X1163Y1088D01*
X1183Y1088D02*
X1190Y1088D01*
X2937Y1088D02*
X2944Y1088D01*
X2957Y1088D02*
X2963Y1088D01*
X2984Y1088D02*
X2990Y1088D01*
X3011Y1088D02*
X3017Y1088D01*
X3537Y1088D02*
X3543Y1088D01*
X3557Y1088D02*
X3563Y1088D01*
X3583Y1088D02*
X3589Y1088D01*
X3611Y1088D02*
X3617Y1088D01*
X537Y1087D02*
X545Y1087D01*
X556Y1087D02*
X563Y1087D01*
X597Y1087D02*
X603Y1087D01*
X611Y1087D02*
X617Y1087D01*
X1137Y1087D02*
X1145Y1087D01*
X1156Y1087D02*
X1163Y1087D01*
X1183Y1087D02*
X1190Y1087D01*
X2937Y1087D02*
X2945Y1087D01*
X2956Y1087D02*
X2963Y1087D01*
X2984Y1087D02*
X2992Y1087D01*
X3011Y1087D02*
X3017Y1087D01*
X3537Y1087D02*
X3545Y1087D01*
X3556Y1087D02*
X3563Y1087D01*
X3583Y1087D02*
X3589Y1087D01*
X3611Y1087D02*
X3617Y1087D01*
X538Y1086D02*
X563Y1086D01*
X585Y1086D02*
X617Y1086D01*
X1138Y1086D02*
X1163Y1086D01*
X1183Y1086D02*
X1215Y1086D01*
X2938Y1086D02*
X2963Y1086D01*
X2983Y1086D02*
X3017Y1086D01*
X3538Y1086D02*
X3563Y1086D01*
X3583Y1086D02*
X3617Y1086D01*
X538Y1085D02*
X562Y1085D01*
X584Y1085D02*
X617Y1085D01*
X1138Y1085D02*
X1162Y1085D01*
X1183Y1085D02*
X1216Y1085D01*
X2938Y1085D02*
X2962Y1085D01*
X2984Y1085D02*
X3017Y1085D01*
X3538Y1085D02*
X3562Y1085D01*
X3583Y1085D02*
X3617Y1085D01*
X539Y1084D02*
X562Y1084D01*
X584Y1084D02*
X617Y1084D01*
X1139Y1084D02*
X1162Y1084D01*
X1183Y1084D02*
X1217Y1084D01*
X2939Y1084D02*
X2962Y1084D01*
X2984Y1084D02*
X3017Y1084D01*
X3539Y1084D02*
X3562Y1084D01*
X3583Y1084D02*
X3617Y1084D01*
X540Y1083D02*
X561Y1083D01*
X584Y1083D02*
X617Y1083D01*
X1140Y1083D02*
X1161Y1083D01*
X1183Y1083D02*
X1217Y1083D01*
X2940Y1083D02*
X2961Y1083D01*
X2985Y1083D02*
X3016Y1083D01*
X3540Y1083D02*
X3561Y1083D01*
X3583Y1083D02*
X3617Y1083D01*
X541Y1082D02*
X560Y1082D01*
X584Y1082D02*
X617Y1082D01*
X1141Y1082D02*
X1160Y1082D01*
X1183Y1082D02*
X1217Y1082D01*
X2941Y1082D02*
X2960Y1082D01*
X2987Y1082D02*
X3015Y1082D01*
X3541Y1082D02*
X3560Y1082D01*
X3584Y1082D02*
X3617Y1082D01*
X542Y1081D02*
X559Y1081D01*
X584Y1081D02*
X616Y1081D01*
X1142Y1081D02*
X1159Y1081D01*
X1183Y1081D02*
X1216Y1081D01*
X2942Y1081D02*
X2958Y1081D01*
X2989Y1081D02*
X3014Y1081D01*
X3542Y1081D02*
X3558Y1081D01*
X3584Y1081D02*
X3616Y1081D01*
X544Y1080D02*
X556Y1080D01*
X585Y1080D02*
X615Y1080D01*
X1144Y1080D02*
X1156Y1080D01*
X1183Y1080D02*
X1215Y1080D01*
X2944Y1080D02*
X2956Y1080D01*
X2992Y1080D02*
X3013Y1080D01*
X3544Y1080D02*
X3556Y1080D01*
X3585Y1080D02*
X3615Y1080D01*
X1479Y965D02*
X1482Y965D01*
X1529Y965D02*
X1529Y965D01*
X1556Y965D02*
X1556Y965D01*
X1732Y965D02*
X1753Y965D01*
X1779Y965D02*
X1806Y965D01*
X1829Y965D02*
X1829Y965D01*
X1856Y965D02*
X1856Y965D01*
X1477Y964D02*
X1484Y964D01*
X1527Y964D02*
X1531Y964D01*
X1554Y964D02*
X1558Y964D01*
X1729Y964D02*
X1756Y964D01*
X1777Y964D02*
X1808Y964D01*
X1827Y964D02*
X1831Y964D01*
X1854Y964D02*
X1858Y964D01*
X1476Y963D02*
X1485Y963D01*
X1526Y963D02*
X1532Y963D01*
X1554Y963D02*
X1559Y963D01*
X1728Y963D02*
X1757Y963D01*
X1776Y963D02*
X1809Y963D01*
X1826Y963D02*
X1831Y963D01*
X1854Y963D02*
X1859Y963D01*
X1476Y962D02*
X1485Y962D01*
X1526Y962D02*
X1532Y962D01*
X1553Y962D02*
X1559Y962D01*
X1727Y962D02*
X1758Y962D01*
X1776Y962D02*
X1809Y962D01*
X1826Y962D02*
X1832Y962D01*
X1853Y962D02*
X1859Y962D01*
X1476Y961D02*
X1485Y961D01*
X1526Y961D02*
X1533Y961D01*
X1553Y961D02*
X1559Y961D01*
X1726Y961D02*
X1759Y961D01*
X1776Y961D02*
X1809Y961D01*
X1826Y961D02*
X1833Y961D01*
X1853Y961D02*
X1859Y961D01*
X1476Y960D02*
X1485Y960D01*
X1526Y960D02*
X1533Y960D01*
X1553Y960D02*
X1559Y960D01*
X1726Y960D02*
X1759Y960D01*
X1776Y960D02*
X1809Y960D01*
X1826Y960D02*
X1833Y960D01*
X1853Y960D02*
X1859Y960D01*
X1476Y959D02*
X1484Y959D01*
X1527Y959D02*
X1534Y959D01*
X1553Y959D02*
X1559Y959D01*
X1726Y959D02*
X1759Y959D01*
X1776Y959D02*
X1808Y959D01*
X1827Y959D02*
X1834Y959D01*
X1853Y959D02*
X1859Y959D01*
X1476Y958D02*
X1482Y958D01*
X1527Y958D02*
X1534Y958D01*
X1553Y958D02*
X1559Y958D01*
X1726Y958D02*
X1732Y958D01*
X1753Y958D02*
X1759Y958D01*
X1776Y958D02*
X1782Y958D01*
X1789Y958D02*
X1796Y958D01*
X1827Y958D02*
X1834Y958D01*
X1853Y958D02*
X1859Y958D01*
X1476Y957D02*
X1482Y957D01*
X1528Y957D02*
X1535Y957D01*
X1553Y957D02*
X1559Y957D01*
X1726Y957D02*
X1732Y957D01*
X1753Y957D02*
X1759Y957D01*
X1776Y957D02*
X1782Y957D01*
X1789Y957D02*
X1796Y957D01*
X1828Y957D02*
X1835Y957D01*
X1853Y957D02*
X1859Y957D01*
X1476Y956D02*
X1482Y956D01*
X1528Y956D02*
X1536Y956D01*
X1553Y956D02*
X1559Y956D01*
X1726Y956D02*
X1732Y956D01*
X1753Y956D02*
X1759Y956D01*
X1776Y956D02*
X1782Y956D01*
X1789Y956D02*
X1796Y956D01*
X1828Y956D02*
X1836Y956D01*
X1853Y956D02*
X1859Y956D01*
X1476Y955D02*
X1482Y955D01*
X1529Y955D02*
X1536Y955D01*
X1553Y955D02*
X1559Y955D01*
X1726Y955D02*
X1732Y955D01*
X1753Y955D02*
X1759Y955D01*
X1776Y955D02*
X1782Y955D01*
X1789Y955D02*
X1796Y955D01*
X1829Y955D02*
X1836Y955D01*
X1853Y955D02*
X1859Y955D01*
X1476Y954D02*
X1482Y954D01*
X1530Y954D02*
X1537Y954D01*
X1553Y954D02*
X1559Y954D01*
X1726Y954D02*
X1732Y954D01*
X1753Y954D02*
X1759Y954D01*
X1776Y954D02*
X1782Y954D01*
X1789Y954D02*
X1796Y954D01*
X1830Y954D02*
X1837Y954D01*
X1853Y954D02*
X1859Y954D01*
X1476Y953D02*
X1482Y953D01*
X1530Y953D02*
X1537Y953D01*
X1553Y953D02*
X1559Y953D01*
X1726Y953D02*
X1732Y953D01*
X1753Y953D02*
X1759Y953D01*
X1776Y953D02*
X1782Y953D01*
X1789Y953D02*
X1796Y953D01*
X1830Y953D02*
X1837Y953D01*
X1853Y953D02*
X1859Y953D01*
X1476Y952D02*
X1482Y952D01*
X1531Y952D02*
X1538Y952D01*
X1553Y952D02*
X1559Y952D01*
X1726Y952D02*
X1732Y952D01*
X1753Y952D02*
X1759Y952D01*
X1776Y952D02*
X1782Y952D01*
X1789Y952D02*
X1796Y952D01*
X1831Y952D02*
X1838Y952D01*
X1853Y952D02*
X1859Y952D01*
X1476Y951D02*
X1482Y951D01*
X1531Y951D02*
X1539Y951D01*
X1553Y951D02*
X1559Y951D01*
X1726Y951D02*
X1732Y951D01*
X1753Y951D02*
X1759Y951D01*
X1776Y951D02*
X1782Y951D01*
X1789Y951D02*
X1796Y951D01*
X1831Y951D02*
X1839Y951D01*
X1853Y951D02*
X1859Y951D01*
X1476Y950D02*
X1482Y950D01*
X1532Y950D02*
X1539Y950D01*
X1553Y950D02*
X1559Y950D01*
X1726Y950D02*
X1732Y950D01*
X1753Y950D02*
X1759Y950D01*
X1776Y950D02*
X1782Y950D01*
X1789Y950D02*
X1796Y950D01*
X1832Y950D02*
X1839Y950D01*
X1853Y950D02*
X1859Y950D01*
X1476Y949D02*
X1482Y949D01*
X1533Y949D02*
X1540Y949D01*
X1553Y949D02*
X1559Y949D01*
X1726Y949D02*
X1732Y949D01*
X1753Y949D02*
X1759Y949D01*
X1776Y949D02*
X1782Y949D01*
X1789Y949D02*
X1796Y949D01*
X1832Y949D02*
X1840Y949D01*
X1853Y949D02*
X1859Y949D01*
X1476Y948D02*
X1482Y948D01*
X1533Y948D02*
X1540Y948D01*
X1553Y948D02*
X1559Y948D01*
X1726Y948D02*
X1732Y948D01*
X1753Y948D02*
X1759Y948D01*
X1776Y948D02*
X1782Y948D01*
X1789Y948D02*
X1796Y948D01*
X1833Y948D02*
X1840Y948D01*
X1853Y948D02*
X1859Y948D01*
X1476Y947D02*
X1482Y947D01*
X1534Y947D02*
X1541Y947D01*
X1553Y947D02*
X1559Y947D01*
X1726Y947D02*
X1732Y947D01*
X1753Y947D02*
X1759Y947D01*
X1776Y947D02*
X1782Y947D01*
X1789Y947D02*
X1796Y947D01*
X1834Y947D02*
X1841Y947D01*
X1853Y947D02*
X1859Y947D01*
X1476Y946D02*
X1482Y946D01*
X1534Y946D02*
X1541Y946D01*
X1553Y946D02*
X1559Y946D01*
X1726Y946D02*
X1732Y946D01*
X1753Y946D02*
X1759Y946D01*
X1776Y946D02*
X1782Y946D01*
X1789Y946D02*
X1796Y946D01*
X1834Y946D02*
X1841Y946D01*
X1853Y946D02*
X1859Y946D01*
X1476Y945D02*
X1482Y945D01*
X1535Y945D02*
X1542Y945D01*
X1553Y945D02*
X1559Y945D01*
X1726Y945D02*
X1732Y945D01*
X1753Y945D02*
X1759Y945D01*
X1776Y945D02*
X1782Y945D01*
X1789Y945D02*
X1796Y945D01*
X1835Y945D02*
X1842Y945D01*
X1853Y945D02*
X1859Y945D01*
X1476Y944D02*
X1482Y944D01*
X1535Y944D02*
X1543Y944D01*
X1553Y944D02*
X1559Y944D01*
X1726Y944D02*
X1732Y944D01*
X1753Y944D02*
X1759Y944D01*
X1776Y944D02*
X1782Y944D01*
X1789Y944D02*
X1796Y944D01*
X1835Y944D02*
X1843Y944D01*
X1853Y944D02*
X1859Y944D01*
X1476Y943D02*
X1482Y943D01*
X1536Y943D02*
X1543Y943D01*
X1553Y943D02*
X1559Y943D01*
X1726Y943D02*
X1732Y943D01*
X1753Y943D02*
X1759Y943D01*
X1776Y943D02*
X1782Y943D01*
X1789Y943D02*
X1796Y943D01*
X1836Y943D02*
X1843Y943D01*
X1853Y943D02*
X1859Y943D01*
X1476Y942D02*
X1482Y942D01*
X1537Y942D02*
X1544Y942D01*
X1553Y942D02*
X1559Y942D01*
X1726Y942D02*
X1732Y942D01*
X1753Y942D02*
X1759Y942D01*
X1776Y942D02*
X1781Y942D01*
X1789Y942D02*
X1796Y942D01*
X1837Y942D02*
X1844Y942D01*
X1853Y942D02*
X1859Y942D01*
X1476Y941D02*
X1482Y941D01*
X1537Y941D02*
X1544Y941D01*
X1553Y941D02*
X1559Y941D01*
X1726Y941D02*
X1732Y941D01*
X1753Y941D02*
X1759Y941D01*
X1777Y941D02*
X1780Y941D01*
X1789Y941D02*
X1796Y941D01*
X1837Y941D02*
X1844Y941D01*
X1853Y941D02*
X1859Y941D01*
X1476Y940D02*
X1482Y940D01*
X1538Y940D02*
X1545Y940D01*
X1553Y940D02*
X1559Y940D01*
X1726Y940D02*
X1732Y940D01*
X1753Y940D02*
X1759Y940D01*
X1789Y940D02*
X1796Y940D01*
X1838Y940D02*
X1845Y940D01*
X1853Y940D02*
X1859Y940D01*
X1476Y939D02*
X1482Y939D01*
X1538Y939D02*
X1546Y939D01*
X1553Y939D02*
X1559Y939D01*
X1726Y939D02*
X1732Y939D01*
X1753Y939D02*
X1759Y939D01*
X1789Y939D02*
X1796Y939D01*
X1838Y939D02*
X1846Y939D01*
X1853Y939D02*
X1859Y939D01*
X1476Y938D02*
X1482Y938D01*
X1539Y938D02*
X1546Y938D01*
X1553Y938D02*
X1559Y938D01*
X1726Y938D02*
X1732Y938D01*
X1753Y938D02*
X1759Y938D01*
X1789Y938D02*
X1796Y938D01*
X1839Y938D02*
X1846Y938D01*
X1853Y938D02*
X1859Y938D01*
X1476Y937D02*
X1482Y937D01*
X1540Y937D02*
X1547Y937D01*
X1553Y937D02*
X1559Y937D01*
X1726Y937D02*
X1732Y937D01*
X1753Y937D02*
X1759Y937D01*
X1789Y937D02*
X1796Y937D01*
X1839Y937D02*
X1847Y937D01*
X1853Y937D02*
X1859Y937D01*
X1476Y936D02*
X1482Y936D01*
X1540Y936D02*
X1547Y936D01*
X1553Y936D02*
X1559Y936D01*
X1726Y936D02*
X1732Y936D01*
X1753Y936D02*
X1759Y936D01*
X1789Y936D02*
X1796Y936D01*
X1840Y936D02*
X1847Y936D01*
X1853Y936D02*
X1859Y936D01*
X1476Y935D02*
X1508Y935D01*
X1533Y935D02*
X1559Y935D01*
X1726Y935D02*
X1732Y935D01*
X1753Y935D02*
X1759Y935D01*
X1789Y935D02*
X1796Y935D01*
X1833Y935D02*
X1859Y935D01*
X1476Y934D02*
X1509Y934D01*
X1531Y934D02*
X1559Y934D01*
X1726Y934D02*
X1732Y934D01*
X1753Y934D02*
X1759Y934D01*
X1789Y934D02*
X1796Y934D01*
X1831Y934D02*
X1859Y934D01*
X1476Y933D02*
X1509Y933D01*
X1529Y933D02*
X1559Y933D01*
X1726Y933D02*
X1732Y933D01*
X1753Y933D02*
X1759Y933D01*
X1789Y933D02*
X1796Y933D01*
X1829Y933D02*
X1859Y933D01*
X2059Y933D02*
X2062Y933D01*
X2085Y933D02*
X2117Y933D01*
X1476Y932D02*
X1509Y932D01*
X1528Y932D02*
X1559Y932D01*
X1726Y932D02*
X1732Y932D01*
X1753Y932D02*
X1759Y932D01*
X1789Y932D02*
X1796Y932D01*
X1828Y932D02*
X1859Y932D01*
X2058Y932D02*
X2063Y932D01*
X2084Y932D02*
X2117Y932D01*
X1476Y931D02*
X1509Y931D01*
X1528Y931D02*
X1559Y931D01*
X1726Y931D02*
X1732Y931D01*
X1753Y931D02*
X1759Y931D01*
X1789Y931D02*
X1796Y931D01*
X1828Y931D02*
X1859Y931D01*
X2058Y931D02*
X2063Y931D01*
X2084Y931D02*
X2117Y931D01*
X1476Y930D02*
X1509Y930D01*
X1527Y930D02*
X1559Y930D01*
X1726Y930D02*
X1732Y930D01*
X1753Y930D02*
X1759Y930D01*
X1789Y930D02*
X1796Y930D01*
X1827Y930D02*
X1859Y930D01*
X2058Y930D02*
X2064Y930D01*
X2083Y930D02*
X2117Y930D01*
X1476Y929D02*
X1509Y929D01*
X1526Y929D02*
X1559Y929D01*
X1726Y929D02*
X1732Y929D01*
X1753Y929D02*
X1759Y929D01*
X1789Y929D02*
X1796Y929D01*
X1826Y929D02*
X1859Y929D01*
X2058Y929D02*
X2064Y929D01*
X2083Y929D02*
X2117Y929D01*
X1476Y928D02*
X1482Y928D01*
X1503Y928D02*
X1509Y928D01*
X1526Y928D02*
X1533Y928D01*
X1553Y928D02*
X1559Y928D01*
X1726Y928D02*
X1732Y928D01*
X1753Y928D02*
X1759Y928D01*
X1789Y928D02*
X1796Y928D01*
X1826Y928D02*
X1833Y928D01*
X1853Y928D02*
X1859Y928D01*
X2058Y928D02*
X2064Y928D01*
X2083Y928D02*
X2117Y928D01*
X1476Y927D02*
X1482Y927D01*
X1503Y927D02*
X1509Y927D01*
X1526Y927D02*
X1532Y927D01*
X1553Y927D02*
X1559Y927D01*
X1726Y927D02*
X1732Y927D01*
X1753Y927D02*
X1759Y927D01*
X1789Y927D02*
X1796Y927D01*
X1826Y927D02*
X1832Y927D01*
X1853Y927D02*
X1859Y927D01*
X2058Y927D02*
X2064Y927D01*
X2083Y927D02*
X2117Y927D01*
X1476Y926D02*
X1482Y926D01*
X1503Y926D02*
X1509Y926D01*
X1526Y926D02*
X1532Y926D01*
X1553Y926D02*
X1559Y926D01*
X1726Y926D02*
X1732Y926D01*
X1753Y926D02*
X1759Y926D01*
X1789Y926D02*
X1796Y926D01*
X1826Y926D02*
X1832Y926D01*
X1853Y926D02*
X1859Y926D01*
X2058Y926D02*
X2064Y926D01*
X2084Y926D02*
X2089Y926D01*
X2111Y926D02*
X2117Y926D01*
X1476Y925D02*
X1482Y925D01*
X1503Y925D02*
X1509Y925D01*
X1526Y925D02*
X1532Y925D01*
X1553Y925D02*
X1559Y925D01*
X1726Y925D02*
X1732Y925D01*
X1753Y925D02*
X1759Y925D01*
X1789Y925D02*
X1796Y925D01*
X1826Y925D02*
X1832Y925D01*
X1853Y925D02*
X1859Y925D01*
X2058Y925D02*
X2064Y925D01*
X2084Y925D02*
X2089Y925D01*
X2111Y925D02*
X2117Y925D01*
X1476Y924D02*
X1482Y924D01*
X1503Y924D02*
X1509Y924D01*
X1526Y924D02*
X1532Y924D01*
X1553Y924D02*
X1559Y924D01*
X1726Y924D02*
X1732Y924D01*
X1753Y924D02*
X1759Y924D01*
X1789Y924D02*
X1796Y924D01*
X1826Y924D02*
X1832Y924D01*
X1853Y924D02*
X1859Y924D01*
X2058Y924D02*
X2064Y924D01*
X2086Y924D02*
X2087Y924D01*
X2111Y924D02*
X2117Y924D01*
X1476Y923D02*
X1482Y923D01*
X1503Y923D02*
X1509Y923D01*
X1526Y923D02*
X1532Y923D01*
X1553Y923D02*
X1559Y923D01*
X1726Y923D02*
X1732Y923D01*
X1753Y923D02*
X1759Y923D01*
X1789Y923D02*
X1796Y923D01*
X1826Y923D02*
X1832Y923D01*
X1853Y923D02*
X1859Y923D01*
X2058Y923D02*
X2064Y923D01*
X2111Y923D02*
X2117Y923D01*
X1476Y922D02*
X1482Y922D01*
X1503Y922D02*
X1509Y922D01*
X1526Y922D02*
X1532Y922D01*
X1553Y922D02*
X1559Y922D01*
X1726Y922D02*
X1732Y922D01*
X1753Y922D02*
X1759Y922D01*
X1789Y922D02*
X1796Y922D01*
X1826Y922D02*
X1832Y922D01*
X1853Y922D02*
X1859Y922D01*
X2058Y922D02*
X2064Y922D01*
X2111Y922D02*
X2117Y922D01*
X1476Y921D02*
X1482Y921D01*
X1503Y921D02*
X1509Y921D01*
X1526Y921D02*
X1532Y921D01*
X1553Y921D02*
X1559Y921D01*
X1726Y921D02*
X1732Y921D01*
X1753Y921D02*
X1759Y921D01*
X1789Y921D02*
X1796Y921D01*
X1826Y921D02*
X1832Y921D01*
X1853Y921D02*
X1859Y921D01*
X2058Y921D02*
X2064Y921D01*
X2111Y921D02*
X2117Y921D01*
X1476Y920D02*
X1482Y920D01*
X1503Y920D02*
X1509Y920D01*
X1526Y920D02*
X1532Y920D01*
X1553Y920D02*
X1559Y920D01*
X1726Y920D02*
X1732Y920D01*
X1753Y920D02*
X1759Y920D01*
X1789Y920D02*
X1796Y920D01*
X1826Y920D02*
X1832Y920D01*
X1853Y920D02*
X1859Y920D01*
X2058Y920D02*
X2064Y920D01*
X2111Y920D02*
X2117Y920D01*
X1476Y919D02*
X1482Y919D01*
X1503Y919D02*
X1509Y919D01*
X1526Y919D02*
X1533Y919D01*
X1553Y919D02*
X1559Y919D01*
X1726Y919D02*
X1732Y919D01*
X1753Y919D02*
X1759Y919D01*
X1789Y919D02*
X1796Y919D01*
X1826Y919D02*
X1833Y919D01*
X1853Y919D02*
X1859Y919D01*
X2058Y919D02*
X2064Y919D01*
X2111Y919D02*
X2117Y919D01*
X1476Y918D02*
X1482Y918D01*
X1503Y918D02*
X1509Y918D01*
X1526Y918D02*
X1535Y918D01*
X1553Y918D02*
X1559Y918D01*
X1726Y918D02*
X1732Y918D01*
X1753Y918D02*
X1759Y918D01*
X1789Y918D02*
X1796Y918D01*
X1826Y918D02*
X1835Y918D01*
X1853Y918D02*
X1859Y918D01*
X2058Y918D02*
X2064Y918D01*
X2111Y918D02*
X2117Y918D01*
X1476Y917D02*
X1509Y917D01*
X1527Y917D02*
X1559Y917D01*
X1726Y917D02*
X1759Y917D01*
X1789Y917D02*
X1808Y917D01*
X1827Y917D02*
X1859Y917D01*
X2058Y917D02*
X2064Y917D01*
X2111Y917D02*
X2117Y917D01*
X1476Y916D02*
X1509Y916D01*
X1527Y916D02*
X1559Y916D01*
X1726Y916D02*
X1759Y916D01*
X1789Y916D02*
X1809Y916D01*
X1827Y916D02*
X1859Y916D01*
X2058Y916D02*
X2064Y916D01*
X2111Y916D02*
X2117Y916D01*
X1476Y915D02*
X1509Y915D01*
X1528Y915D02*
X1559Y915D01*
X1726Y915D02*
X1759Y915D01*
X1789Y915D02*
X1809Y915D01*
X1828Y915D02*
X1859Y915D01*
X2058Y915D02*
X2064Y915D01*
X2111Y915D02*
X2117Y915D01*
X1476Y914D02*
X1509Y914D01*
X1529Y914D02*
X1559Y914D01*
X1727Y914D02*
X1758Y914D01*
X1789Y914D02*
X1809Y914D01*
X1829Y914D02*
X1859Y914D01*
X2058Y914D02*
X2064Y914D01*
X2111Y914D02*
X2117Y914D01*
X1476Y913D02*
X1509Y913D01*
X1530Y913D02*
X1559Y913D01*
X1728Y913D02*
X1757Y913D01*
X1789Y913D02*
X1809Y913D01*
X1830Y913D02*
X1859Y913D01*
X2058Y913D02*
X2064Y913D01*
X2110Y913D02*
X2117Y913D01*
X1477Y912D02*
X1508Y912D01*
X1532Y912D02*
X1559Y912D01*
X1729Y912D02*
X1756Y912D01*
X1789Y912D02*
X1808Y912D01*
X1832Y912D02*
X1859Y912D01*
X2058Y912D02*
X2064Y912D01*
X2109Y912D02*
X2117Y912D01*
X1479Y911D02*
X1506Y911D01*
X1536Y911D02*
X1559Y911D01*
X1732Y911D02*
X1753Y911D01*
X1790Y911D02*
X1806Y911D01*
X1836Y911D02*
X1859Y911D01*
X2058Y911D02*
X2064Y911D01*
X2107Y911D02*
X2117Y911D01*
X2058Y910D02*
X2064Y910D01*
X2106Y910D02*
X2116Y910D01*
X2058Y909D02*
X2064Y909D01*
X2105Y909D02*
X2115Y909D01*
X2058Y908D02*
X2064Y908D01*
X2104Y908D02*
X2114Y908D01*
X2058Y907D02*
X2064Y907D01*
X2103Y907D02*
X2112Y907D01*
X2058Y906D02*
X2064Y906D01*
X2101Y906D02*
X2111Y906D01*
X2058Y905D02*
X2064Y905D01*
X2100Y905D02*
X2110Y905D01*
X2039Y904D02*
X2041Y904D01*
X2058Y904D02*
X2064Y904D01*
X2099Y904D02*
X2109Y904D01*
X2038Y903D02*
X2042Y903D01*
X2058Y903D02*
X2064Y903D01*
X2098Y903D02*
X2108Y903D01*
X2037Y902D02*
X2043Y902D01*
X2058Y902D02*
X2064Y902D01*
X2097Y902D02*
X2107Y902D01*
X2037Y901D02*
X2043Y901D01*
X2058Y901D02*
X2064Y901D01*
X2097Y901D02*
X2105Y901D01*
X2037Y900D02*
X2043Y900D01*
X2058Y900D02*
X2064Y900D01*
X2097Y900D02*
X2104Y900D01*
X2037Y899D02*
X2043Y899D01*
X2058Y899D02*
X2064Y899D01*
X2097Y899D02*
X2103Y899D01*
X2037Y898D02*
X2043Y898D01*
X2058Y898D02*
X2064Y898D01*
X2097Y898D02*
X2103Y898D01*
X2037Y897D02*
X2043Y897D01*
X2058Y897D02*
X2064Y897D01*
X2097Y897D02*
X2103Y897D01*
X2037Y896D02*
X2043Y896D01*
X2058Y896D02*
X2064Y896D01*
X2097Y896D02*
X2103Y896D01*
X2037Y895D02*
X2043Y895D01*
X2058Y895D02*
X2064Y895D01*
X2097Y895D02*
X2103Y895D01*
X2037Y894D02*
X2043Y894D01*
X2058Y894D02*
X2064Y894D01*
X2097Y894D02*
X2103Y894D01*
X2037Y893D02*
X2043Y893D01*
X2058Y893D02*
X2064Y893D01*
X2097Y893D02*
X2103Y893D01*
X2037Y892D02*
X2043Y892D01*
X2058Y892D02*
X2064Y892D01*
X2097Y892D02*
X2103Y892D01*
X2037Y891D02*
X2043Y891D01*
X2058Y891D02*
X2064Y891D01*
X2097Y891D02*
X2103Y891D01*
X2037Y890D02*
X2043Y890D01*
X2058Y890D02*
X2064Y890D01*
X2097Y890D02*
X2103Y890D01*
X2037Y889D02*
X2043Y889D01*
X2057Y889D02*
X2063Y889D01*
X2097Y889D02*
X2103Y889D01*
X2037Y888D02*
X2044Y888D01*
X2057Y888D02*
X2063Y888D01*
X2097Y888D02*
X2103Y888D01*
X2037Y887D02*
X2045Y887D01*
X2056Y887D02*
X2063Y887D01*
X2097Y887D02*
X2103Y887D01*
X2038Y886D02*
X2063Y886D01*
X2097Y886D02*
X2103Y886D01*
X2038Y885D02*
X2062Y885D01*
X2097Y885D02*
X2103Y885D01*
X2039Y884D02*
X2062Y884D01*
X2097Y884D02*
X2103Y884D01*
X2040Y883D02*
X2061Y883D01*
X2097Y883D02*
X2103Y883D01*
X2041Y882D02*
X2060Y882D01*
X2097Y882D02*
X2103Y882D01*
X2042Y881D02*
X2058Y881D01*
X2098Y881D02*
X2102Y881D01*
X2044Y880D02*
X2056Y880D01*
X2099Y880D02*
X2101Y880D01*
X28Y815D02*
X29Y815D01*
X56Y815D02*
X57Y815D01*
X881Y815D02*
X904Y815D01*
X928Y815D02*
X929Y815D01*
X956Y815D02*
X957Y815D01*
X2328Y815D02*
X2357Y815D01*
X2378Y815D02*
X2407Y815D01*
X2428Y815D02*
X2429Y815D01*
X2456Y815D02*
X2457Y815D01*
X3228Y815D02*
X3259Y815D01*
X3278Y815D02*
X3307Y815D01*
X3328Y815D02*
X3329Y815D01*
X3356Y815D02*
X3357Y815D01*
X27Y814D02*
X31Y814D01*
X54Y814D02*
X58Y814D01*
X879Y814D02*
X906Y814D01*
X927Y814D02*
X931Y814D01*
X954Y814D02*
X958Y814D01*
X2327Y814D02*
X2358Y814D01*
X2377Y814D02*
X2408Y814D01*
X2427Y814D02*
X2431Y814D01*
X2454Y814D02*
X2458Y814D01*
X3227Y814D02*
X3259Y814D01*
X3277Y814D02*
X3308Y814D01*
X3327Y814D02*
X3331Y814D01*
X3354Y814D02*
X3358Y814D01*
X26Y813D02*
X32Y813D01*
X54Y813D02*
X59Y813D01*
X878Y813D02*
X907Y813D01*
X926Y813D02*
X932Y813D01*
X954Y813D02*
X959Y813D01*
X2326Y813D02*
X2359Y813D01*
X2376Y813D02*
X2409Y813D01*
X2426Y813D02*
X2432Y813D01*
X2454Y813D02*
X2459Y813D01*
X3226Y813D02*
X3259Y813D01*
X3276Y813D02*
X3309Y813D01*
X3326Y813D02*
X3332Y813D01*
X3354Y813D02*
X3359Y813D01*
X26Y812D02*
X32Y812D01*
X53Y812D02*
X59Y812D01*
X877Y812D02*
X908Y812D01*
X926Y812D02*
X932Y812D01*
X953Y812D02*
X959Y812D01*
X2326Y812D02*
X2359Y812D01*
X2376Y812D02*
X2409Y812D01*
X2426Y812D02*
X2432Y812D01*
X2453Y812D02*
X2459Y812D01*
X3226Y812D02*
X3259Y812D01*
X3276Y812D02*
X3309Y812D01*
X3326Y812D02*
X3332Y812D01*
X3353Y812D02*
X3359Y812D01*
X26Y811D02*
X33Y811D01*
X53Y811D02*
X59Y811D01*
X876Y811D02*
X909Y811D01*
X926Y811D02*
X933Y811D01*
X953Y811D02*
X959Y811D01*
X2326Y811D02*
X2359Y811D01*
X2376Y811D02*
X2409Y811D01*
X2426Y811D02*
X2433Y811D01*
X2453Y811D02*
X2459Y811D01*
X3226Y811D02*
X3259Y811D01*
X3276Y811D02*
X3309Y811D01*
X3326Y811D02*
X3333Y811D01*
X3353Y811D02*
X3359Y811D01*
X26Y810D02*
X33Y810D01*
X53Y810D02*
X59Y810D01*
X876Y810D02*
X909Y810D01*
X926Y810D02*
X933Y810D01*
X953Y810D02*
X959Y810D01*
X2326Y810D02*
X2359Y810D01*
X2376Y810D02*
X2409Y810D01*
X2426Y810D02*
X2433Y810D01*
X2453Y810D02*
X2459Y810D01*
X3226Y810D02*
X3259Y810D01*
X3276Y810D02*
X3309Y810D01*
X3326Y810D02*
X3333Y810D01*
X3353Y810D02*
X3359Y810D01*
X27Y809D02*
X34Y809D01*
X53Y809D02*
X59Y809D01*
X876Y809D02*
X909Y809D01*
X927Y809D02*
X934Y809D01*
X953Y809D02*
X959Y809D01*
X2326Y809D02*
X2358Y809D01*
X2376Y809D02*
X2408Y809D01*
X2427Y809D02*
X2434Y809D01*
X2453Y809D02*
X2459Y809D01*
X3227Y809D02*
X3259Y809D01*
X3276Y809D02*
X3308Y809D01*
X3327Y809D02*
X3334Y809D01*
X3353Y809D02*
X3359Y809D01*
X27Y808D02*
X35Y808D01*
X53Y808D02*
X59Y808D01*
X876Y808D02*
X882Y808D01*
X903Y808D02*
X909Y808D01*
X927Y808D02*
X934Y808D01*
X953Y808D02*
X959Y808D01*
X2326Y808D02*
X2332Y808D01*
X2339Y808D02*
X2346Y808D01*
X2376Y808D02*
X2382Y808D01*
X2389Y808D02*
X2396Y808D01*
X2427Y808D02*
X2434Y808D01*
X2453Y808D02*
X2459Y808D01*
X3253Y808D02*
X3259Y808D01*
X3276Y808D02*
X3282Y808D01*
X3289Y808D02*
X3296Y808D01*
X3327Y808D02*
X3334Y808D01*
X3353Y808D02*
X3359Y808D01*
X28Y807D02*
X35Y807D01*
X53Y807D02*
X59Y807D01*
X876Y807D02*
X882Y807D01*
X903Y807D02*
X909Y807D01*
X928Y807D02*
X935Y807D01*
X953Y807D02*
X959Y807D01*
X2326Y807D02*
X2332Y807D01*
X2339Y807D02*
X2346Y807D01*
X2376Y807D02*
X2382Y807D01*
X2389Y807D02*
X2396Y807D01*
X2428Y807D02*
X2435Y807D01*
X2453Y807D02*
X2459Y807D01*
X3253Y807D02*
X3259Y807D01*
X3276Y807D02*
X3282Y807D01*
X3289Y807D02*
X3295Y807D01*
X3328Y807D02*
X3335Y807D01*
X3353Y807D02*
X3359Y807D01*
X29Y806D02*
X36Y806D01*
X53Y806D02*
X59Y806D01*
X876Y806D02*
X882Y806D01*
X903Y806D02*
X909Y806D01*
X928Y806D02*
X936Y806D01*
X953Y806D02*
X959Y806D01*
X2326Y806D02*
X2332Y806D01*
X2339Y806D02*
X2346Y806D01*
X2376Y806D02*
X2382Y806D01*
X2389Y806D02*
X2396Y806D01*
X2428Y806D02*
X2436Y806D01*
X2453Y806D02*
X2459Y806D01*
X3253Y806D02*
X3259Y806D01*
X3276Y806D02*
X3282Y806D01*
X3289Y806D02*
X3295Y806D01*
X3328Y806D02*
X3336Y806D01*
X3353Y806D02*
X3359Y806D01*
X29Y805D02*
X36Y805D01*
X53Y805D02*
X59Y805D01*
X876Y805D02*
X882Y805D01*
X903Y805D02*
X909Y805D01*
X929Y805D02*
X936Y805D01*
X953Y805D02*
X959Y805D01*
X2326Y805D02*
X2332Y805D01*
X2339Y805D02*
X2346Y805D01*
X2376Y805D02*
X2382Y805D01*
X2389Y805D02*
X2396Y805D01*
X2429Y805D02*
X2436Y805D01*
X2453Y805D02*
X2459Y805D01*
X3253Y805D02*
X3259Y805D01*
X3276Y805D02*
X3282Y805D01*
X3289Y805D02*
X3295Y805D01*
X3329Y805D02*
X3336Y805D01*
X3353Y805D02*
X3359Y805D01*
X30Y804D02*
X37Y804D01*
X53Y804D02*
X59Y804D01*
X876Y804D02*
X882Y804D01*
X903Y804D02*
X909Y804D01*
X930Y804D02*
X937Y804D01*
X953Y804D02*
X959Y804D01*
X2326Y804D02*
X2332Y804D01*
X2339Y804D02*
X2346Y804D01*
X2376Y804D02*
X2382Y804D01*
X2389Y804D02*
X2396Y804D01*
X2430Y804D02*
X2437Y804D01*
X2453Y804D02*
X2459Y804D01*
X3253Y804D02*
X3259Y804D01*
X3276Y804D02*
X3282Y804D01*
X3289Y804D02*
X3295Y804D01*
X3330Y804D02*
X3337Y804D01*
X3353Y804D02*
X3359Y804D01*
X30Y803D02*
X37Y803D01*
X53Y803D02*
X59Y803D01*
X876Y803D02*
X882Y803D01*
X903Y803D02*
X909Y803D01*
X930Y803D02*
X937Y803D01*
X953Y803D02*
X959Y803D01*
X2326Y803D02*
X2332Y803D01*
X2339Y803D02*
X2346Y803D01*
X2376Y803D02*
X2382Y803D01*
X2389Y803D02*
X2396Y803D01*
X2430Y803D02*
X2437Y803D01*
X2453Y803D02*
X2459Y803D01*
X3253Y803D02*
X3259Y803D01*
X3276Y803D02*
X3282Y803D01*
X3289Y803D02*
X3295Y803D01*
X3330Y803D02*
X3337Y803D01*
X3353Y803D02*
X3359Y803D01*
X31Y802D02*
X38Y802D01*
X53Y802D02*
X59Y802D01*
X876Y802D02*
X882Y802D01*
X903Y802D02*
X909Y802D01*
X931Y802D02*
X938Y802D01*
X953Y802D02*
X959Y802D01*
X2326Y802D02*
X2332Y802D01*
X2339Y802D02*
X2346Y802D01*
X2376Y802D02*
X2382Y802D01*
X2389Y802D02*
X2396Y802D01*
X2431Y802D02*
X2438Y802D01*
X2453Y802D02*
X2459Y802D01*
X3253Y802D02*
X3259Y802D01*
X3276Y802D02*
X3282Y802D01*
X3289Y802D02*
X3295Y802D01*
X3331Y802D02*
X3338Y802D01*
X3353Y802D02*
X3359Y802D01*
X31Y801D02*
X39Y801D01*
X53Y801D02*
X59Y801D01*
X876Y801D02*
X882Y801D01*
X903Y801D02*
X909Y801D01*
X931Y801D02*
X939Y801D01*
X953Y801D02*
X959Y801D01*
X2326Y801D02*
X2332Y801D01*
X2339Y801D02*
X2346Y801D01*
X2376Y801D02*
X2382Y801D01*
X2389Y801D02*
X2396Y801D01*
X2431Y801D02*
X2439Y801D01*
X2453Y801D02*
X2459Y801D01*
X3253Y801D02*
X3259Y801D01*
X3276Y801D02*
X3282Y801D01*
X3289Y801D02*
X3295Y801D01*
X3331Y801D02*
X3339Y801D01*
X3353Y801D02*
X3359Y801D01*
X32Y800D02*
X39Y800D01*
X53Y800D02*
X59Y800D01*
X876Y800D02*
X882Y800D01*
X903Y800D02*
X909Y800D01*
X932Y800D02*
X939Y800D01*
X953Y800D02*
X959Y800D01*
X2326Y800D02*
X2332Y800D01*
X2339Y800D02*
X2346Y800D01*
X2376Y800D02*
X2382Y800D01*
X2389Y800D02*
X2396Y800D01*
X2432Y800D02*
X2439Y800D01*
X2453Y800D02*
X2459Y800D01*
X3253Y800D02*
X3259Y800D01*
X3276Y800D02*
X3282Y800D01*
X3289Y800D02*
X3295Y800D01*
X3332Y800D02*
X3339Y800D01*
X3353Y800D02*
X3359Y800D01*
X33Y799D02*
X40Y799D01*
X53Y799D02*
X59Y799D01*
X876Y799D02*
X882Y799D01*
X903Y799D02*
X909Y799D01*
X933Y799D02*
X940Y799D01*
X953Y799D02*
X959Y799D01*
X2326Y799D02*
X2332Y799D01*
X2339Y799D02*
X2346Y799D01*
X2376Y799D02*
X2382Y799D01*
X2389Y799D02*
X2396Y799D01*
X2433Y799D02*
X2440Y799D01*
X2453Y799D02*
X2459Y799D01*
X3253Y799D02*
X3259Y799D01*
X3276Y799D02*
X3282Y799D01*
X3289Y799D02*
X3295Y799D01*
X3332Y799D02*
X3340Y799D01*
X3353Y799D02*
X3359Y799D01*
X33Y798D02*
X40Y798D01*
X53Y798D02*
X59Y798D01*
X876Y798D02*
X882Y798D01*
X903Y798D02*
X909Y798D01*
X933Y798D02*
X940Y798D01*
X953Y798D02*
X959Y798D01*
X2326Y798D02*
X2332Y798D01*
X2339Y798D02*
X2346Y798D01*
X2376Y798D02*
X2382Y798D01*
X2389Y798D02*
X2396Y798D01*
X2433Y798D02*
X2440Y798D01*
X2453Y798D02*
X2459Y798D01*
X3253Y798D02*
X3259Y798D01*
X3276Y798D02*
X3282Y798D01*
X3289Y798D02*
X3295Y798D01*
X3333Y798D02*
X3340Y798D01*
X3353Y798D02*
X3359Y798D01*
X34Y797D02*
X41Y797D01*
X53Y797D02*
X59Y797D01*
X876Y797D02*
X882Y797D01*
X903Y797D02*
X909Y797D01*
X934Y797D02*
X941Y797D01*
X953Y797D02*
X959Y797D01*
X2326Y797D02*
X2332Y797D01*
X2339Y797D02*
X2346Y797D01*
X2376Y797D02*
X2382Y797D01*
X2389Y797D02*
X2396Y797D01*
X2434Y797D02*
X2441Y797D01*
X2453Y797D02*
X2459Y797D01*
X3253Y797D02*
X3259Y797D01*
X3276Y797D02*
X3282Y797D01*
X3289Y797D02*
X3295Y797D01*
X3334Y797D02*
X3341Y797D01*
X3353Y797D02*
X3359Y797D01*
X34Y796D02*
X42Y796D01*
X53Y796D02*
X59Y796D01*
X876Y796D02*
X882Y796D01*
X903Y796D02*
X909Y796D01*
X934Y796D02*
X942Y796D01*
X953Y796D02*
X959Y796D01*
X2326Y796D02*
X2332Y796D01*
X2339Y796D02*
X2346Y796D01*
X2376Y796D02*
X2382Y796D01*
X2389Y796D02*
X2396Y796D01*
X2434Y796D02*
X2441Y796D01*
X2453Y796D02*
X2459Y796D01*
X3253Y796D02*
X3259Y796D01*
X3276Y796D02*
X3282Y796D01*
X3289Y796D02*
X3295Y796D01*
X3334Y796D02*
X3341Y796D01*
X3353Y796D02*
X3359Y796D01*
X35Y795D02*
X42Y795D01*
X53Y795D02*
X59Y795D01*
X876Y795D02*
X882Y795D01*
X903Y795D02*
X909Y795D01*
X935Y795D02*
X942Y795D01*
X953Y795D02*
X959Y795D01*
X2326Y795D02*
X2332Y795D01*
X2339Y795D02*
X2346Y795D01*
X2376Y795D02*
X2382Y795D01*
X2389Y795D02*
X2396Y795D01*
X2435Y795D02*
X2442Y795D01*
X2453Y795D02*
X2459Y795D01*
X3253Y795D02*
X3259Y795D01*
X3276Y795D02*
X3282Y795D01*
X3289Y795D02*
X3295Y795D01*
X3335Y795D02*
X3342Y795D01*
X3353Y795D02*
X3359Y795D01*
X36Y794D02*
X43Y794D01*
X53Y794D02*
X59Y794D01*
X876Y794D02*
X882Y794D01*
X903Y794D02*
X909Y794D01*
X935Y794D02*
X943Y794D01*
X953Y794D02*
X959Y794D01*
X2326Y794D02*
X2332Y794D01*
X2339Y794D02*
X2346Y794D01*
X2376Y794D02*
X2382Y794D01*
X2389Y794D02*
X2396Y794D01*
X2435Y794D02*
X2443Y794D01*
X2453Y794D02*
X2459Y794D01*
X3253Y794D02*
X3259Y794D01*
X3276Y794D02*
X3282Y794D01*
X3289Y794D02*
X3295Y794D01*
X3335Y794D02*
X3343Y794D01*
X3353Y794D02*
X3359Y794D01*
X36Y793D02*
X43Y793D01*
X53Y793D02*
X59Y793D01*
X876Y793D02*
X882Y793D01*
X903Y793D02*
X909Y793D01*
X936Y793D02*
X943Y793D01*
X953Y793D02*
X959Y793D01*
X2326Y793D02*
X2331Y793D01*
X2339Y793D02*
X2346Y793D01*
X2376Y793D02*
X2381Y793D01*
X2389Y793D02*
X2396Y793D01*
X2436Y793D02*
X2443Y793D01*
X2453Y793D02*
X2459Y793D01*
X3253Y793D02*
X3259Y793D01*
X3276Y793D02*
X3281Y793D01*
X3289Y793D02*
X3295Y793D01*
X3336Y793D02*
X3343Y793D01*
X3353Y793D02*
X3359Y793D01*
X37Y792D02*
X44Y792D01*
X53Y792D02*
X59Y792D01*
X876Y792D02*
X882Y792D01*
X903Y792D02*
X909Y792D01*
X937Y792D02*
X944Y792D01*
X953Y792D02*
X959Y792D01*
X2326Y792D02*
X2331Y792D01*
X2339Y792D02*
X2346Y792D01*
X2376Y792D02*
X2381Y792D01*
X2389Y792D02*
X2396Y792D01*
X2437Y792D02*
X2444Y792D01*
X2453Y792D02*
X2459Y792D01*
X3253Y792D02*
X3259Y792D01*
X3276Y792D02*
X3281Y792D01*
X3289Y792D02*
X3295Y792D01*
X3337Y792D02*
X3344Y792D01*
X3353Y792D02*
X3359Y792D01*
X37Y791D02*
X44Y791D01*
X53Y791D02*
X59Y791D01*
X876Y791D02*
X909Y791D01*
X937Y791D02*
X944Y791D01*
X953Y791D02*
X959Y791D01*
X2327Y791D02*
X2330Y791D01*
X2339Y791D02*
X2346Y791D01*
X2377Y791D02*
X2380Y791D01*
X2389Y791D02*
X2396Y791D01*
X2437Y791D02*
X2444Y791D01*
X2453Y791D02*
X2459Y791D01*
X3230Y791D02*
X3259Y791D01*
X3277Y791D02*
X3280Y791D01*
X3289Y791D02*
X3295Y791D01*
X3337Y791D02*
X3344Y791D01*
X3353Y791D02*
X3359Y791D01*
X38Y790D02*
X45Y790D01*
X53Y790D02*
X59Y790D01*
X876Y790D02*
X909Y790D01*
X938Y790D02*
X945Y790D01*
X953Y790D02*
X959Y790D01*
X2339Y790D02*
X2346Y790D01*
X2389Y790D02*
X2396Y790D01*
X2438Y790D02*
X2445Y790D01*
X2453Y790D02*
X2459Y790D01*
X3228Y790D02*
X3259Y790D01*
X3289Y790D02*
X3295Y790D01*
X3338Y790D02*
X3345Y790D01*
X3353Y790D02*
X3359Y790D01*
X38Y789D02*
X46Y789D01*
X53Y789D02*
X59Y789D01*
X876Y789D02*
X909Y789D01*
X938Y789D02*
X946Y789D01*
X953Y789D02*
X959Y789D01*
X2339Y789D02*
X2346Y789D01*
X2389Y789D02*
X2396Y789D01*
X2438Y789D02*
X2446Y789D01*
X2453Y789D02*
X2459Y789D01*
X3227Y789D02*
X3259Y789D01*
X3289Y789D02*
X3295Y789D01*
X3338Y789D02*
X3346Y789D01*
X3353Y789D02*
X3359Y789D01*
X39Y788D02*
X46Y788D01*
X53Y788D02*
X59Y788D01*
X877Y788D02*
X908Y788D01*
X939Y788D02*
X946Y788D01*
X953Y788D02*
X959Y788D01*
X2339Y788D02*
X2346Y788D01*
X2389Y788D02*
X2396Y788D01*
X2439Y788D02*
X2446Y788D01*
X2453Y788D02*
X2459Y788D01*
X3227Y788D02*
X3258Y788D01*
X3289Y788D02*
X3295Y788D01*
X3339Y788D02*
X3346Y788D01*
X3353Y788D02*
X3359Y788D01*
X40Y787D02*
X47Y787D01*
X53Y787D02*
X59Y787D01*
X878Y787D02*
X908Y787D01*
X940Y787D02*
X947Y787D01*
X953Y787D02*
X959Y787D01*
X2339Y787D02*
X2346Y787D01*
X2389Y787D02*
X2396Y787D01*
X2440Y787D02*
X2447Y787D01*
X2453Y787D02*
X2459Y787D01*
X3226Y787D02*
X3257Y787D01*
X3289Y787D02*
X3295Y787D01*
X3339Y787D02*
X3347Y787D01*
X3353Y787D02*
X3359Y787D01*
X40Y786D02*
X47Y786D01*
X53Y786D02*
X59Y786D01*
X879Y786D02*
X906Y786D01*
X940Y786D02*
X947Y786D01*
X953Y786D02*
X959Y786D01*
X2339Y786D02*
X2346Y786D01*
X2389Y786D02*
X2396Y786D01*
X2440Y786D02*
X2447Y786D01*
X2453Y786D02*
X2459Y786D01*
X3226Y786D02*
X3256Y786D01*
X3289Y786D02*
X3295Y786D01*
X3340Y786D02*
X3347Y786D01*
X3353Y786D02*
X3359Y786D01*
X32Y785D02*
X59Y785D01*
X880Y785D02*
X905Y785D01*
X932Y785D02*
X959Y785D01*
X2339Y785D02*
X2346Y785D01*
X2389Y785D02*
X2396Y785D01*
X2432Y785D02*
X2459Y785D01*
X3226Y785D02*
X3254Y785D01*
X3289Y785D02*
X3295Y785D01*
X3332Y785D02*
X3359Y785D01*
X31Y784D02*
X59Y784D01*
X883Y784D02*
X889Y784D01*
X896Y784D02*
X902Y784D01*
X931Y784D02*
X959Y784D01*
X2339Y784D02*
X2346Y784D01*
X2389Y784D02*
X2396Y784D01*
X2430Y784D02*
X2459Y784D01*
X3226Y784D02*
X3232Y784D01*
X3289Y784D02*
X3295Y784D01*
X3330Y784D02*
X3359Y784D01*
X29Y783D02*
X59Y783D01*
X883Y783D02*
X889Y783D01*
X896Y783D02*
X902Y783D01*
X929Y783D02*
X959Y783D01*
X2339Y783D02*
X2346Y783D01*
X2389Y783D02*
X2396Y783D01*
X2429Y783D02*
X2459Y783D01*
X3226Y783D02*
X3232Y783D01*
X3289Y783D02*
X3295Y783D01*
X3329Y783D02*
X3359Y783D01*
X28Y782D02*
X59Y782D01*
X883Y782D02*
X889Y782D01*
X896Y782D02*
X902Y782D01*
X928Y782D02*
X959Y782D01*
X2339Y782D02*
X2346Y782D01*
X2389Y782D02*
X2396Y782D01*
X2428Y782D02*
X2459Y782D01*
X3226Y782D02*
X3232Y782D01*
X3289Y782D02*
X3295Y782D01*
X3328Y782D02*
X3359Y782D01*
X28Y781D02*
X59Y781D01*
X883Y781D02*
X889Y781D01*
X896Y781D02*
X902Y781D01*
X928Y781D02*
X959Y781D01*
X2339Y781D02*
X2346Y781D01*
X2389Y781D02*
X2396Y781D01*
X2427Y781D02*
X2459Y781D01*
X3226Y781D02*
X3232Y781D01*
X3289Y781D02*
X3295Y781D01*
X3327Y781D02*
X3359Y781D01*
X27Y780D02*
X59Y780D01*
X883Y780D02*
X889Y780D01*
X896Y780D02*
X902Y780D01*
X927Y780D02*
X959Y780D01*
X2339Y780D02*
X2346Y780D01*
X2389Y780D02*
X2396Y780D01*
X2427Y780D02*
X2459Y780D01*
X3226Y780D02*
X3232Y780D01*
X3289Y780D02*
X3295Y780D01*
X3327Y780D02*
X3359Y780D01*
X26Y779D02*
X59Y779D01*
X883Y779D02*
X889Y779D01*
X896Y779D02*
X902Y779D01*
X926Y779D02*
X959Y779D01*
X2339Y779D02*
X2346Y779D01*
X2389Y779D02*
X2396Y779D01*
X2426Y779D02*
X2459Y779D01*
X3226Y779D02*
X3232Y779D01*
X3289Y779D02*
X3295Y779D01*
X3326Y779D02*
X3359Y779D01*
X26Y778D02*
X33Y778D01*
X53Y778D02*
X59Y778D01*
X883Y778D02*
X889Y778D01*
X896Y778D02*
X902Y778D01*
X926Y778D02*
X933Y778D01*
X953Y778D02*
X959Y778D01*
X2339Y778D02*
X2346Y778D01*
X2389Y778D02*
X2396Y778D01*
X2426Y778D02*
X2433Y778D01*
X2453Y778D02*
X2459Y778D01*
X3226Y778D02*
X3232Y778D01*
X3289Y778D02*
X3295Y778D01*
X3326Y778D02*
X3333Y778D01*
X3353Y778D02*
X3359Y778D01*
X26Y777D02*
X32Y777D01*
X53Y777D02*
X59Y777D01*
X883Y777D02*
X889Y777D01*
X896Y777D02*
X902Y777D01*
X926Y777D02*
X932Y777D01*
X953Y777D02*
X959Y777D01*
X2339Y777D02*
X2346Y777D01*
X2389Y777D02*
X2396Y777D01*
X2426Y777D02*
X2432Y777D01*
X2453Y777D02*
X2459Y777D01*
X3226Y777D02*
X3232Y777D01*
X3289Y777D02*
X3295Y777D01*
X3326Y777D02*
X3332Y777D01*
X3353Y777D02*
X3359Y777D01*
X26Y776D02*
X32Y776D01*
X53Y776D02*
X59Y776D01*
X883Y776D02*
X889Y776D01*
X896Y776D02*
X902Y776D01*
X926Y776D02*
X932Y776D01*
X953Y776D02*
X959Y776D01*
X2339Y776D02*
X2346Y776D01*
X2389Y776D02*
X2396Y776D01*
X2426Y776D02*
X2432Y776D01*
X2453Y776D02*
X2459Y776D01*
X3226Y776D02*
X3232Y776D01*
X3289Y776D02*
X3295Y776D01*
X3326Y776D02*
X3332Y776D01*
X3353Y776D02*
X3359Y776D01*
X26Y775D02*
X32Y775D01*
X53Y775D02*
X59Y775D01*
X883Y775D02*
X889Y775D01*
X896Y775D02*
X902Y775D01*
X926Y775D02*
X932Y775D01*
X953Y775D02*
X959Y775D01*
X2339Y775D02*
X2346Y775D01*
X2389Y775D02*
X2396Y775D01*
X2426Y775D02*
X2432Y775D01*
X2453Y775D02*
X2459Y775D01*
X3226Y775D02*
X3232Y775D01*
X3289Y775D02*
X3295Y775D01*
X3326Y775D02*
X3332Y775D01*
X3353Y775D02*
X3359Y775D01*
X26Y774D02*
X32Y774D01*
X53Y774D02*
X59Y774D01*
X883Y774D02*
X889Y774D01*
X896Y774D02*
X902Y774D01*
X926Y774D02*
X932Y774D01*
X953Y774D02*
X959Y774D01*
X2339Y774D02*
X2346Y774D01*
X2389Y774D02*
X2396Y774D01*
X2426Y774D02*
X2432Y774D01*
X2453Y774D02*
X2459Y774D01*
X3226Y774D02*
X3232Y774D01*
X3289Y774D02*
X3295Y774D01*
X3326Y774D02*
X3332Y774D01*
X3353Y774D02*
X3359Y774D01*
X26Y773D02*
X32Y773D01*
X53Y773D02*
X59Y773D01*
X883Y773D02*
X889Y773D01*
X896Y773D02*
X902Y773D01*
X926Y773D02*
X932Y773D01*
X953Y773D02*
X959Y773D01*
X2339Y773D02*
X2346Y773D01*
X2389Y773D02*
X2396Y773D01*
X2426Y773D02*
X2432Y773D01*
X2453Y773D02*
X2459Y773D01*
X3226Y773D02*
X3232Y773D01*
X3289Y773D02*
X3295Y773D01*
X3326Y773D02*
X3332Y773D01*
X3353Y773D02*
X3359Y773D01*
X26Y772D02*
X32Y772D01*
X53Y772D02*
X59Y772D01*
X883Y772D02*
X889Y772D01*
X896Y772D02*
X902Y772D01*
X926Y772D02*
X932Y772D01*
X953Y772D02*
X959Y772D01*
X2339Y772D02*
X2346Y772D01*
X2389Y772D02*
X2396Y772D01*
X2426Y772D02*
X2432Y772D01*
X2453Y772D02*
X2459Y772D01*
X3226Y772D02*
X3232Y772D01*
X3289Y772D02*
X3295Y772D01*
X3326Y772D02*
X3332Y772D01*
X3353Y772D02*
X3359Y772D01*
X26Y771D02*
X32Y771D01*
X53Y771D02*
X59Y771D01*
X883Y771D02*
X889Y771D01*
X896Y771D02*
X902Y771D01*
X926Y771D02*
X932Y771D01*
X953Y771D02*
X959Y771D01*
X2339Y771D02*
X2346Y771D01*
X2389Y771D02*
X2396Y771D01*
X2426Y771D02*
X2432Y771D01*
X2453Y771D02*
X2459Y771D01*
X3226Y771D02*
X3232Y771D01*
X3289Y771D02*
X3295Y771D01*
X3326Y771D02*
X3332Y771D01*
X3353Y771D02*
X3359Y771D01*
X4Y770D02*
X8Y770D01*
X26Y770D02*
X32Y770D01*
X53Y770D02*
X59Y770D01*
X883Y770D02*
X889Y770D01*
X896Y770D02*
X902Y770D01*
X926Y770D02*
X932Y770D01*
X953Y770D02*
X959Y770D01*
X2339Y770D02*
X2346Y770D01*
X2389Y770D02*
X2396Y770D01*
X2426Y770D02*
X2432Y770D01*
X2453Y770D02*
X2459Y770D01*
X3226Y770D02*
X3232Y770D01*
X3289Y770D02*
X3295Y770D01*
X3326Y770D02*
X3332Y770D01*
X3353Y770D02*
X3359Y770D01*
X4Y769D02*
X9Y769D01*
X26Y769D02*
X33Y769D01*
X53Y769D02*
X59Y769D01*
X883Y769D02*
X889Y769D01*
X896Y769D02*
X902Y769D01*
X926Y769D02*
X933Y769D01*
X953Y769D02*
X959Y769D01*
X2339Y769D02*
X2346Y769D01*
X2389Y769D02*
X2396Y769D01*
X2426Y769D02*
X2433Y769D01*
X2453Y769D02*
X2459Y769D01*
X3226Y769D02*
X3232Y769D01*
X3289Y769D02*
X3295Y769D01*
X3326Y769D02*
X3333Y769D01*
X3353Y769D02*
X3359Y769D01*
X0Y768D02*
X9Y768D01*
X26Y768D02*
X59Y768D01*
X883Y768D02*
X902Y768D01*
X926Y768D02*
X959Y768D01*
X2339Y768D02*
X2356Y768D01*
X2389Y768D02*
X2406Y768D01*
X2426Y768D02*
X2459Y768D01*
X3226Y768D02*
X3256Y768D01*
X3289Y768D02*
X3306Y768D01*
X3326Y768D02*
X3359Y768D01*
X0Y767D02*
X9Y767D01*
X27Y767D02*
X59Y767D01*
X883Y767D02*
X902Y767D01*
X927Y767D02*
X959Y767D01*
X2339Y767D02*
X2358Y767D01*
X2389Y767D02*
X2408Y767D01*
X2427Y767D02*
X2459Y767D01*
X3226Y767D02*
X3258Y767D01*
X3289Y767D02*
X3308Y767D01*
X3327Y767D02*
X3359Y767D01*
X0Y766D02*
X9Y766D01*
X27Y766D02*
X59Y766D01*
X883Y766D02*
X902Y766D01*
X927Y766D02*
X959Y766D01*
X2339Y766D02*
X2359Y766D01*
X2389Y766D02*
X2409Y766D01*
X2427Y766D02*
X2459Y766D01*
X3226Y766D02*
X3259Y766D01*
X3289Y766D02*
X3309Y766D01*
X3327Y766D02*
X3359Y766D01*
X0Y765D02*
X9Y765D01*
X28Y765D02*
X59Y765D01*
X883Y765D02*
X902Y765D01*
X928Y765D02*
X959Y765D01*
X2339Y765D02*
X2359Y765D01*
X2389Y765D02*
X2409Y765D01*
X2428Y765D02*
X2459Y765D01*
X3226Y765D02*
X3259Y765D01*
X3289Y765D02*
X3309Y765D01*
X3328Y765D02*
X3359Y765D01*
X0Y764D02*
X9Y764D01*
X29Y764D02*
X59Y764D01*
X883Y764D02*
X902Y764D01*
X929Y764D02*
X959Y764D01*
X2339Y764D02*
X2359Y764D01*
X2389Y764D02*
X2409Y764D01*
X2429Y764D02*
X2459Y764D01*
X3227Y764D02*
X3259Y764D01*
X3289Y764D02*
X3309Y764D01*
X3329Y764D02*
X3359Y764D01*
X0Y763D02*
X9Y763D01*
X30Y763D02*
X59Y763D01*
X883Y763D02*
X902Y763D01*
X930Y763D02*
X959Y763D01*
X2339Y763D02*
X2359Y763D01*
X2389Y763D02*
X2409Y763D01*
X2430Y763D02*
X2459Y763D01*
X3228Y763D02*
X3259Y763D01*
X3289Y763D02*
X3309Y763D01*
X3330Y763D02*
X3359Y763D01*
X0Y762D02*
X8Y762D01*
X32Y762D02*
X59Y762D01*
X884Y762D02*
X901Y762D01*
X932Y762D02*
X959Y762D01*
X2339Y762D02*
X2358Y762D01*
X2389Y762D02*
X2408Y762D01*
X2432Y762D02*
X2459Y762D01*
X3229Y762D02*
X3258Y762D01*
X3289Y762D02*
X3308Y762D01*
X3332Y762D02*
X3359Y762D01*
X2259Y633D02*
X2262Y633D01*
X2292Y633D02*
X2309Y633D01*
X2258Y632D02*
X2263Y632D01*
X2291Y632D02*
X2310Y632D01*
X2258Y631D02*
X2263Y631D01*
X2291Y631D02*
X2310Y631D01*
X2258Y630D02*
X2264Y630D01*
X2290Y630D02*
X2310Y630D01*
X2258Y629D02*
X2264Y629D01*
X2290Y629D02*
X2310Y629D01*
X2258Y628D02*
X2264Y628D01*
X2290Y628D02*
X2310Y628D01*
X2258Y627D02*
X2264Y627D01*
X2290Y627D02*
X2310Y627D01*
X2258Y626D02*
X2264Y626D01*
X2290Y626D02*
X2296Y626D01*
X2304Y626D02*
X2310Y626D01*
X2258Y625D02*
X2264Y625D01*
X2290Y625D02*
X2296Y625D01*
X2304Y625D02*
X2310Y625D01*
X2258Y624D02*
X2264Y624D01*
X2290Y624D02*
X2296Y624D01*
X2304Y624D02*
X2310Y624D01*
X2258Y623D02*
X2264Y623D01*
X2290Y623D02*
X2296Y623D01*
X2304Y623D02*
X2310Y623D01*
X2258Y622D02*
X2264Y622D01*
X2290Y622D02*
X2296Y622D01*
X2304Y622D02*
X2310Y622D01*
X2258Y621D02*
X2264Y621D01*
X2290Y621D02*
X2296Y621D01*
X2304Y621D02*
X2310Y621D01*
X2258Y620D02*
X2264Y620D01*
X2290Y620D02*
X2296Y620D01*
X2304Y620D02*
X2310Y620D01*
X2258Y619D02*
X2264Y619D01*
X2290Y619D02*
X2296Y619D01*
X2304Y619D02*
X2310Y619D01*
X2258Y618D02*
X2264Y618D01*
X2290Y618D02*
X2296Y618D01*
X2304Y618D02*
X2310Y618D01*
X2258Y617D02*
X2264Y617D01*
X2290Y617D02*
X2296Y617D01*
X2304Y617D02*
X2310Y617D01*
X2258Y616D02*
X2264Y616D01*
X2290Y616D02*
X2296Y616D01*
X2304Y616D02*
X2310Y616D01*
X2258Y615D02*
X2264Y615D01*
X2290Y615D02*
X2296Y615D01*
X2304Y615D02*
X2310Y615D01*
X2258Y614D02*
X2264Y614D01*
X2290Y614D02*
X2296Y614D01*
X2304Y614D02*
X2310Y614D01*
X2258Y613D02*
X2264Y613D01*
X2290Y613D02*
X2296Y613D01*
X2304Y613D02*
X2310Y613D01*
X2258Y612D02*
X2264Y612D01*
X2290Y612D02*
X2296Y612D01*
X2304Y612D02*
X2310Y612D01*
X2258Y611D02*
X2264Y611D01*
X2290Y611D02*
X2296Y611D01*
X2304Y611D02*
X2310Y611D01*
X2258Y610D02*
X2264Y610D01*
X2288Y610D02*
X2312Y610D01*
X2258Y609D02*
X2264Y609D01*
X2286Y609D02*
X2314Y609D01*
X2258Y608D02*
X2264Y608D01*
X2285Y608D02*
X2315Y608D01*
X2258Y607D02*
X2264Y607D01*
X2285Y607D02*
X2316Y607D01*
X2258Y606D02*
X2264Y606D01*
X2284Y606D02*
X2316Y606D01*
X2258Y605D02*
X2264Y605D01*
X2284Y605D02*
X2317Y605D01*
X2239Y604D02*
X2241Y604D01*
X2258Y604D02*
X2264Y604D01*
X2284Y604D02*
X2317Y604D01*
X2238Y603D02*
X2242Y603D01*
X2258Y603D02*
X2264Y603D01*
X2283Y603D02*
X2290Y603D01*
X2311Y603D02*
X2317Y603D01*
X2237Y602D02*
X2243Y602D01*
X2258Y602D02*
X2264Y602D01*
X2283Y602D02*
X2289Y602D01*
X2311Y602D02*
X2317Y602D01*
X2237Y601D02*
X2243Y601D01*
X2258Y601D02*
X2264Y601D01*
X2283Y601D02*
X2289Y601D01*
X2311Y601D02*
X2317Y601D01*
X2237Y600D02*
X2243Y600D01*
X2258Y600D02*
X2264Y600D01*
X2283Y600D02*
X2289Y600D01*
X2311Y600D02*
X2317Y600D01*
X2237Y599D02*
X2243Y599D01*
X2258Y599D02*
X2264Y599D01*
X2283Y599D02*
X2289Y599D01*
X2311Y599D02*
X2317Y599D01*
X2237Y598D02*
X2243Y598D01*
X2258Y598D02*
X2264Y598D01*
X2283Y598D02*
X2289Y598D01*
X2311Y598D02*
X2317Y598D01*
X2237Y597D02*
X2243Y597D01*
X2258Y597D02*
X2264Y597D01*
X2283Y597D02*
X2289Y597D01*
X2311Y597D02*
X2317Y597D01*
X2237Y596D02*
X2243Y596D01*
X2258Y596D02*
X2264Y596D01*
X2283Y596D02*
X2289Y596D01*
X2311Y596D02*
X2317Y596D01*
X2237Y595D02*
X2243Y595D01*
X2258Y595D02*
X2264Y595D01*
X2283Y595D02*
X2289Y595D01*
X2311Y595D02*
X2317Y595D01*
X2237Y594D02*
X2243Y594D01*
X2258Y594D02*
X2264Y594D01*
X2283Y594D02*
X2289Y594D01*
X2311Y594D02*
X2317Y594D01*
X2237Y593D02*
X2243Y593D01*
X2258Y593D02*
X2264Y593D01*
X2283Y593D02*
X2289Y593D01*
X2311Y593D02*
X2317Y593D01*
X2237Y592D02*
X2243Y592D01*
X2258Y592D02*
X2264Y592D01*
X2283Y592D02*
X2289Y592D01*
X2311Y592D02*
X2317Y592D01*
X2237Y591D02*
X2243Y591D01*
X2258Y591D02*
X2264Y591D01*
X2283Y591D02*
X2289Y591D01*
X2311Y591D02*
X2317Y591D01*
X2237Y590D02*
X2243Y590D01*
X2257Y590D02*
X2264Y590D01*
X2283Y590D02*
X2289Y590D01*
X2311Y590D02*
X2317Y590D01*
X2237Y589D02*
X2243Y589D01*
X2257Y589D02*
X2263Y589D01*
X2283Y589D02*
X2289Y589D01*
X2311Y589D02*
X2317Y589D01*
X2237Y588D02*
X2244Y588D01*
X2257Y588D02*
X2263Y588D01*
X2283Y588D02*
X2289Y588D01*
X2311Y588D02*
X2317Y588D01*
X2237Y587D02*
X2245Y587D01*
X2255Y587D02*
X2263Y587D01*
X2283Y587D02*
X2290Y587D01*
X2311Y587D02*
X2317Y587D01*
X2238Y586D02*
X2263Y586D01*
X2284Y586D02*
X2317Y586D01*
X2238Y585D02*
X2262Y585D01*
X2284Y585D02*
X2317Y585D01*
X2239Y584D02*
X2261Y584D01*
X2284Y584D02*
X2316Y584D01*
X2240Y583D02*
X2261Y583D01*
X2285Y583D02*
X2316Y583D01*
X2241Y582D02*
X2259Y582D01*
X2285Y582D02*
X2315Y582D01*
X2242Y581D02*
X2258Y581D01*
X2286Y581D02*
X2314Y581D01*
X2245Y580D02*
X2255Y580D01*
X2289Y580D02*
X2312Y580D01*
D02*
G04 End of Silk1*
M02*