; NON-PLATED HOLES START AT T1
; THROUGH (PLATED) HOLES START AT T100
M48
INCH
T100C0.038000
T101C0.043307
T102C0.035000
%
T100
X034556Y009828
X021056Y004328
X034556Y007828
X028556Y008828
X010556Y008828
X016556Y010328
X022556Y009328
X016556Y009328
X022056Y004328
X010556Y007828
X034556Y008828
X028556Y006828
X028556Y009828
X016556Y008328
X010556Y006828
X022556Y008328
X010556Y009828
X028556Y007828
X022556Y011328
X022556Y010328
X016556Y011328
X034556Y006828
T101
X018056Y003328
X024056Y003328
X023056Y003328
X004556Y009828
X004556Y007828
X022056Y003328
X016056Y003328
X015056Y003328
X021056Y003328
X019056Y003328
X020056Y003328
X017056Y003328
X004556Y006828
X004556Y008828
T102
X003056Y010828
X012056Y010828
X008556Y008828
X018056Y008328
X036056Y010828
X027056Y010828
X032556Y012828
X030556Y012828
X016556Y012828
X027056Y006828
X012556Y012828
X032556Y008828
X036056Y006828
X022556Y012828
X008556Y012828
X026556Y012828
X003056Y006828
X012056Y006828
X021056Y008328
X006556Y008828
X021056Y012328
X006556Y012828
X030556Y008828
X018056Y012328
T00
M30
