G04 MADE WITH FRITZING*
G04 WWW.FRITZING.ORG*
G04 SINGLE SIDED*
G04 HOLES NOT PLATED*
G04 CONTOUR ON CENTER OF CONTOUR VECTOR*
%ASAXBY*%
%FSLAX23Y23*%
%MOIN*%
%OFA0B0*%
%SFA1.0B1.0*%
%ADD10C,0.093307*%
%ADD11C,0.088000*%
%ADD12C,0.085000*%
%LNMASK0*%
G90*
G70*
G54D10*
X456Y983D03*
X456Y883D03*
X456Y783D03*
X456Y683D03*
X456Y983D03*
X456Y883D03*
X456Y783D03*
X456Y683D03*
G54D11*
X1656Y1133D03*
X1656Y1033D03*
X1656Y933D03*
X1656Y833D03*
X1656Y1133D03*
X1656Y1033D03*
X1656Y933D03*
X1656Y833D03*
X1056Y983D03*
X1056Y883D03*
X1056Y783D03*
X1056Y683D03*
X1056Y983D03*
X1056Y883D03*
X1056Y783D03*
X1056Y683D03*
X2856Y983D03*
X2856Y883D03*
X2856Y783D03*
X2856Y683D03*
X2856Y983D03*
X2856Y883D03*
X2856Y783D03*
X2856Y683D03*
X2256Y1133D03*
X2256Y1033D03*
X2256Y933D03*
X2256Y833D03*
X2256Y1133D03*
X2256Y1033D03*
X2256Y933D03*
X2256Y833D03*
X3456Y983D03*
X3456Y883D03*
X3456Y783D03*
X3456Y683D03*
X3456Y983D03*
X3456Y883D03*
X3456Y783D03*
X3456Y683D03*
G54D12*
X3056Y1283D03*
X3056Y883D03*
X3056Y1283D03*
X3056Y883D03*
X856Y1283D03*
X856Y883D03*
X856Y1283D03*
X856Y883D03*
X656Y1283D03*
X656Y883D03*
X656Y1283D03*
X656Y883D03*
X3256Y1283D03*
X3256Y883D03*
X3256Y1283D03*
X3256Y883D03*
X2656Y1283D03*
X2256Y1283D03*
X2656Y1283D03*
X2256Y1283D03*
X1656Y1283D03*
X1256Y1283D03*
X1656Y1283D03*
X1256Y1283D03*
G54D10*
X1506Y333D03*
X1606Y333D03*
X1706Y333D03*
X1806Y333D03*
X1906Y333D03*
X2006Y333D03*
X2106Y333D03*
X2206Y333D03*
X2306Y333D03*
X2406Y333D03*
X1506Y333D03*
X1606Y333D03*
X1706Y333D03*
X1806Y333D03*
X1906Y333D03*
X2006Y333D03*
X2106Y333D03*
X2206Y333D03*
X2306Y333D03*
X2406Y333D03*
G54D12*
X2706Y683D03*
X2706Y1083D03*
X2706Y683D03*
X2706Y1083D03*
X3606Y683D03*
X3606Y1083D03*
X3606Y683D03*
X3606Y1083D03*
X2106Y833D03*
X2106Y1233D03*
X2106Y833D03*
X2106Y1233D03*
X1806Y833D03*
X1806Y1233D03*
X1806Y833D03*
X1806Y1233D03*
X306Y683D03*
X306Y1083D03*
X306Y683D03*
X306Y1083D03*
X1206Y683D03*
X1206Y1083D03*
X1206Y683D03*
X1206Y1083D03*
G54D11*
X2106Y433D03*
X2206Y433D03*
X2106Y433D03*
X2206Y433D03*
G04 End of Mask0*
M02*